<svg xmlns="http://www.w3.org/2000/svg" width="820" height="700" cursor="move"><path stroke="#505050" stroke-width=".6" marker-end="url(#arrow)" d="M40.9 270l140-252" class="link"/><path stroke="#505050" stroke-width=".6" marker-end="url(#arrow)" d="M40.9 270l140-210" class="link"/><path stroke="#505050" stroke-width=".6" marker-end="url(#arrow)" d="M40.9 270l140-168" class="link"/><path stroke="#505050" stroke-width=".6" marker-end="url(#arrow)" d="M40.9 270l140-126" class="link"/><path stroke="#505050" stroke-width=".6" marker-end="url(#arrow)" d="M40.9 270l140-84" class="link"/><path stroke="#505050" stroke-width=".6" marker-end="url(#arrow)" d="M40.9 270l140-42" class="link"/><path stroke="#505050" stroke-width=".6" marker-end="url(#arrow)" d="M40.9 270h140" class="link"/><path stroke="#505050" stroke-width=".6" marker-end="url(#arrow)" d="M40.9 270l140 42" class="link"/><path stroke="#505050" stroke-width=".6" marker-end="url(#arrow)" d="M40.9 270l140 84" class="link"/><path stroke="#505050" stroke-width=".6" marker-end="url(#arrow)" d="M40.9 270l140 126" class="link"/><path stroke="#505050" stroke-width=".6" marker-end="url(#arrow)" d="M40.9 270l140 168" class="link"/><path stroke="#505050" stroke-width=".6" marker-end="url(#arrow)" d="M40.9 270l140 210" class="link"/><path stroke="#505050" stroke-width=".6" marker-end="url(#arrow)" d="M40.9 312l140-294" class="link"/><path stroke="#505050" stroke-width=".6" marker-end="url(#arrow)" d="M40.9 312l140-252" class="link"/><path stroke="#505050" stroke-width=".6" marker-end="url(#arrow)" d="M40.9 312l140-210" class="link"/><path stroke="#505050" stroke-width=".6" marker-end="url(#arrow)" d="M40.9 312l140-168" class="link"/><path stroke="#505050" stroke-width=".6" marker-end="url(#arrow)" d="M40.9 312l140-126" class="link"/><path stroke="#505050" stroke-width=".6" marker-end="url(#arrow)" d="M40.9 312l140-84" class="link"/><path stroke="#505050" stroke-width=".6" marker-end="url(#arrow)" d="M40.9 312l140-42" class="link"/><path stroke="#505050" stroke-width=".6" marker-end="url(#arrow)" d="M40.9 312h140" class="link"/><path stroke="#505050" stroke-width=".6" marker-end="url(#arrow)" d="M40.9 312l140 42" class="link"/><path stroke="#505050" stroke-width=".6" marker-end="url(#arrow)" d="M40.9 312l140 84" class="link"/><path stroke="#505050" stroke-width=".6" marker-end="url(#arrow)" d="M40.9 312l140 126" class="link"/><path stroke="#505050" stroke-width=".6" marker-end="url(#arrow)" d="M40.9 312l140 168" class="link"/><path stroke="#505050" stroke-width=".6" marker-end="url(#arrow)" d="M40.9 354l140-336" class="link"/><path stroke="#505050" stroke-width=".6" marker-end="url(#arrow)" d="M40.9 354l140-294" class="link"/><path stroke="#505050" stroke-width=".6" marker-end="url(#arrow)" d="M40.9 354l140-252" class="link"/><path stroke="#505050" stroke-width=".6" marker-end="url(#arrow)" d="M40.9 354l140-210" class="link"/><path stroke="#505050" stroke-width=".6" marker-end="url(#arrow)" d="M40.9 354l140-168" class="link"/><path stroke="#505050" stroke-width=".6" marker-end="url(#arrow)" d="M40.9 354l140-126" class="link"/><path stroke="#505050" stroke-width=".6" marker-end="url(#arrow)" d="M40.9 354l140-84" class="link"/><path stroke="#505050" stroke-width=".6" marker-end="url(#arrow)" d="M40.9 354l140-42" class="link"/><path stroke="#505050" stroke-width=".6" marker-end="url(#arrow)" d="M40.9 354h140" class="link"/><path stroke="#505050" stroke-width=".6" marker-end="url(#arrow)" d="M40.9 354l140 42" class="link"/><path stroke="#505050" stroke-width=".6" marker-end="url(#arrow)" d="M40.9 354l140 84" class="link"/><path stroke="#505050" stroke-width=".6" marker-end="url(#arrow)" d="M40.9 354l140 126" class="link"/><path stroke="#505050" stroke-width=".6" marker-end="url(#arrow)" d="M40.9 396l140-378" class="link"/><path stroke="#505050" stroke-width=".6" marker-end="url(#arrow)" d="M40.9 396l140-336" class="link"/><path stroke="#505050" stroke-width=".6" marker-end="url(#arrow)" d="M40.9 396l140-294" class="link"/><path stroke="#505050" stroke-width=".6" marker-end="url(#arrow)" d="M40.9 396l140-252" class="link"/><path stroke="#505050" stroke-width=".6" marker-end="url(#arrow)" d="M40.9 396l140-210" class="link"/><path stroke="#505050" stroke-width=".6" marker-end="url(#arrow)" d="M40.9 396l140-168" class="link"/><path stroke="#505050" stroke-width=".6" marker-end="url(#arrow)" d="M40.9 396l140-126" class="link"/><path stroke="#505050" stroke-width=".6" marker-end="url(#arrow)" d="M40.9 396l140-84" class="link"/><path stroke="#505050" stroke-width=".6" marker-end="url(#arrow)" d="M40.9 396l140-42" class="link"/><path stroke="#505050" stroke-width=".6" marker-end="url(#arrow)" d="M40.9 396h140" class="link"/><path stroke="#505050" stroke-width=".6" marker-end="url(#arrow)" d="M40.9 396l140 42" class="link"/><path stroke="#505050" stroke-width=".6" marker-end="url(#arrow)" d="M40.9 396l140 84" class="link"/><path stroke="#505050" stroke-width=".6" marker-end="url(#arrow)" d="M180.9 18l140 168" class="link"/><path stroke="#505050" stroke-width=".6" marker-end="url(#arrow)" d="M180.9 18l140 210" class="link"/><path stroke="#505050" stroke-width=".6" marker-end="url(#arrow)" d="M180.9 18l140 252" class="link"/><path stroke="#505050" stroke-width=".6" marker-end="url(#arrow)" d="M180.9 18l140 294" class="link"/><path stroke="#505050" stroke-width=".6" marker-end="url(#arrow)" d="M180.9 18l140 336" class="link"/><path stroke="#505050" stroke-width=".6" marker-end="url(#arrow)" d="M180.9 18l140 378" class="link"/><path stroke="#505050" stroke-width=".6" marker-end="url(#arrow)" d="M180.9 18l140 420" class="link"/><path stroke="#505050" stroke-width=".6" marker-end="url(#arrow)" d="M180.9 18l140 462" class="link"/><path stroke="#505050" stroke-width=".6" marker-end="url(#arrow)" d="M180.9 60l140 126" class="link"/><path stroke="#505050" stroke-width=".6" marker-end="url(#arrow)" d="M180.9 60l140 168" class="link"/><path stroke="#505050" stroke-width=".6" marker-end="url(#arrow)" d="M180.9 60l140 210" class="link"/><path stroke="#505050" stroke-width=".6" marker-end="url(#arrow)" d="M180.9 60l140 252" class="link"/><path stroke="#505050" stroke-width=".6" marker-end="url(#arrow)" d="M180.9 60l140 294" class="link"/><path stroke="#505050" stroke-width=".6" marker-end="url(#arrow)" d="M180.9 60l140 336" class="link"/><path stroke="#505050" stroke-width=".6" marker-end="url(#arrow)" d="M180.9 60l140 378" class="link"/><path stroke="#505050" stroke-width=".6" marker-end="url(#arrow)" d="M180.9 60l140 420" class="link"/><path stroke="#505050" stroke-width=".6" marker-end="url(#arrow)" d="M180.9 102l140 84" class="link"/><path stroke="#505050" stroke-width=".6" marker-end="url(#arrow)" d="M180.9 102l140 126" class="link"/><path stroke="#505050" stroke-width=".6" marker-end="url(#arrow)" d="M180.9 102l140 168" class="link"/><path stroke="#505050" stroke-width=".6" marker-end="url(#arrow)" d="M180.9 102l140 210" class="link"/><path stroke="#505050" stroke-width=".6" marker-end="url(#arrow)" d="M180.9 102l140 252" class="link"/><path stroke="#505050" stroke-width=".6" marker-end="url(#arrow)" d="M180.9 102l140 294" class="link"/><path stroke="#505050" stroke-width=".6" marker-end="url(#arrow)" d="M180.9 102l140 336" class="link"/><path stroke="#505050" stroke-width=".6" marker-end="url(#arrow)" d="M180.9 102l140 378" class="link"/><path stroke="#505050" stroke-width=".6" marker-end="url(#arrow)" d="M180.9 144l140 42" class="link"/><path stroke="#505050" stroke-width=".6" marker-end="url(#arrow)" d="M180.9 144l140 84" class="link"/><path stroke="#505050" stroke-width=".6" marker-end="url(#arrow)" d="M180.9 144l140 126" class="link"/><path stroke="#505050" stroke-width=".6" marker-end="url(#arrow)" d="M180.9 144l140 168" class="link"/><path stroke="#505050" stroke-width=".6" marker-end="url(#arrow)" d="M180.9 144l140 210" class="link"/><path stroke="#505050" stroke-width=".6" marker-end="url(#arrow)" d="M180.9 144l140 252" class="link"/><path stroke="#505050" stroke-width=".6" marker-end="url(#arrow)" d="M180.9 144l140 294" class="link"/><path stroke="#505050" stroke-width=".6" marker-end="url(#arrow)" d="M180.9 144l140 336" class="link"/><path stroke="#505050" stroke-width=".6" marker-end="url(#arrow)" d="M180.9 186h140" class="link"/><path stroke="#505050" stroke-width=".6" marker-end="url(#arrow)" d="M180.9 186l140 42" class="link"/><path stroke="#505050" stroke-width=".6" marker-end="url(#arrow)" d="M180.9 186l140 84" class="link"/><path stroke="#505050" stroke-width=".6" marker-end="url(#arrow)" d="M180.9 186l140 126" class="link"/><path stroke="#505050" stroke-width=".6" marker-end="url(#arrow)" d="M180.9 186l140 168" class="link"/><path stroke="#505050" stroke-width=".6" marker-end="url(#arrow)" d="M180.9 186l140 210" class="link"/><path stroke="#505050" stroke-width=".6" marker-end="url(#arrow)" d="M180.9 186l140 252" class="link"/><path stroke="#505050" stroke-width=".6" marker-end="url(#arrow)" d="M180.9 186l140 294" class="link"/><path stroke="#505050" stroke-width=".6" marker-end="url(#arrow)" d="M180.9 228l140-42" class="link"/><path stroke="#505050" stroke-width=".6" marker-end="url(#arrow)" d="M180.9 228h140" class="link"/><path stroke="#505050" stroke-width=".6" marker-end="url(#arrow)" d="M180.9 228l140 42" class="link"/><path stroke="#505050" stroke-width=".6" marker-end="url(#arrow)" d="M180.9 228l140 84" class="link"/><path stroke="#505050" stroke-width=".6" marker-end="url(#arrow)" d="M180.9 228l140 126" class="link"/><path stroke="#505050" stroke-width=".6" marker-end="url(#arrow)" d="M180.9 228l140 168" class="link"/><path stroke="#505050" stroke-width=".6" marker-end="url(#arrow)" d="M180.9 228l140 210" class="link"/><path stroke="#505050" stroke-width=".6" marker-end="url(#arrow)" d="M180.9 228l140 252" class="link"/><path stroke="#505050" stroke-width=".6" marker-end="url(#arrow)" d="M180.9 270l140-84" class="link"/><path stroke="#505050" stroke-width=".6" marker-end="url(#arrow)" d="M180.9 270l140-42" class="link"/><path stroke="#505050" stroke-width=".6" marker-end="url(#arrow)" d="M180.9 270h140" class="link"/><path stroke="#505050" stroke-width=".6" marker-end="url(#arrow)" d="M180.9 270l140 42" class="link"/><path stroke="#505050" stroke-width=".6" marker-end="url(#arrow)" d="M180.9 270l140 84" class="link"/><path stroke="#505050" stroke-width=".6" marker-end="url(#arrow)" d="M180.9 270l140 126" class="link"/><path stroke="#505050" stroke-width=".6" marker-end="url(#arrow)" d="M180.9 270l140 168" class="link"/><path stroke="#505050" stroke-width=".6" marker-end="url(#arrow)" d="M180.9 270l140 210" class="link"/><path stroke="#505050" stroke-width=".6" marker-end="url(#arrow)" d="M180.9 312l140-126" class="link"/><path stroke="#505050" stroke-width=".6" marker-end="url(#arrow)" d="M180.9 312l140-84" class="link"/><path stroke="#505050" stroke-width=".6" marker-end="url(#arrow)" d="M180.9 312l140-42" class="link"/><path stroke="#505050" stroke-width=".6" marker-end="url(#arrow)" d="M180.9 312h140" class="link"/><path stroke="#505050" stroke-width=".6" marker-end="url(#arrow)" d="M180.9 312l140 42" class="link"/><path stroke="#505050" stroke-width=".6" marker-end="url(#arrow)" d="M180.9 312l140 84" class="link"/><path stroke="#505050" stroke-width=".6" marker-end="url(#arrow)" d="M180.9 312l140 126" class="link"/><path stroke="#505050" stroke-width=".6" marker-end="url(#arrow)" d="M180.9 312l140 168" class="link"/><path stroke="#505050" stroke-width=".6" marker-end="url(#arrow)" d="M180.9 354l140-168" class="link"/><path stroke="#505050" stroke-width=".6" marker-end="url(#arrow)" d="M180.9 354l140-126" class="link"/><path stroke="#505050" stroke-width=".6" marker-end="url(#arrow)" d="M180.9 354l140-84" class="link"/><path stroke="#505050" stroke-width=".6" marker-end="url(#arrow)" d="M180.9 354l140-42" class="link"/><path stroke="#505050" stroke-width=".6" marker-end="url(#arrow)" d="M180.9 354h140" class="link"/><path stroke="#505050" stroke-width=".6" marker-end="url(#arrow)" d="M180.9 354l140 42" class="link"/><path stroke="#505050" stroke-width=".6" marker-end="url(#arrow)" d="M180.9 354l140 84" class="link"/><path stroke="#505050" stroke-width=".6" marker-end="url(#arrow)" d="M180.9 354l140 126" class="link"/><path stroke="#505050" stroke-width=".6" marker-end="url(#arrow)" d="M180.9 396l140-210" class="link"/><path stroke="#505050" stroke-width=".6" marker-end="url(#arrow)" d="M180.9 396l140-168" class="link"/><path stroke="#505050" stroke-width=".6" marker-end="url(#arrow)" d="M180.9 396l140-126" class="link"/><path stroke="#505050" stroke-width=".6" marker-end="url(#arrow)" d="M180.9 396l140-84" class="link"/><path stroke="#505050" stroke-width=".6" marker-end="url(#arrow)" d="M180.9 396l140-42" class="link"/><path stroke="#505050" stroke-width=".6" marker-end="url(#arrow)" d="M180.9 396h140" class="link"/><path stroke="#505050" stroke-width=".6" marker-end="url(#arrow)" d="M180.9 396l140 42" class="link"/><path stroke="#505050" stroke-width=".6" marker-end="url(#arrow)" d="M180.9 396l140 84" class="link"/><path stroke="#505050" stroke-width=".6" marker-end="url(#arrow)" d="M180.9 438l140-252" class="link"/><path stroke="#505050" stroke-width=".6" marker-end="url(#arrow)" d="M180.9 438l140-210" class="link"/><path stroke="#505050" stroke-width=".6" marker-end="url(#arrow)" d="M180.9 438l140-168" class="link"/><path stroke="#505050" stroke-width=".6" marker-end="url(#arrow)" d="M180.9 438l140-126" class="link"/><path stroke="#505050" stroke-width=".6" marker-end="url(#arrow)" d="M180.9 438l140-84" class="link"/><path stroke="#505050" stroke-width=".6" marker-end="url(#arrow)" d="M180.9 438l140-42" class="link"/><path stroke="#505050" stroke-width=".6" marker-end="url(#arrow)" d="M180.9 438h140" class="link"/><path stroke="#505050" stroke-width=".6" marker-end="url(#arrow)" d="M180.9 438l140 42" class="link"/><path stroke="#505050" stroke-width=".6" marker-end="url(#arrow)" d="M180.9 480l140-294" class="link"/><path stroke="#505050" stroke-width=".6" marker-end="url(#arrow)" d="M180.9 480l140-252" class="link"/><path stroke="#505050" stroke-width=".6" marker-end="url(#arrow)" d="M180.9 480l140-210" class="link"/><path stroke="#505050" stroke-width=".6" marker-end="url(#arrow)" d="M180.9 480l140-168" class="link"/><path stroke="#505050" stroke-width=".6" marker-end="url(#arrow)" d="M180.9 480l140-126" class="link"/><path stroke="#505050" stroke-width=".6" marker-end="url(#arrow)" d="M180.9 480l140-84" class="link"/><path stroke="#505050" stroke-width=".6" marker-end="url(#arrow)" d="M180.9 480l140-42" class="link"/><path stroke="#505050" stroke-width=".6" marker-end="url(#arrow)" d="M180.9 480h140" class="link"/><path stroke="#505050" stroke-width=".6" marker-end="url(#arrow)" d="M320.9 186l140 63" class="link"/><path stroke="#505050" stroke-width=".6" marker-end="url(#arrow)" d="M320.9 228l140 21" class="link"/><path stroke="#505050" stroke-width=".6" marker-end="url(#arrow)" d="M320.9 270l140-21" class="link"/><path stroke="#505050" stroke-width=".6" marker-end="url(#arrow)" d="M320.9 312l140-63" class="link"/><path stroke="#505050" stroke-width=".6" marker-end="url(#arrow)" d="M320.9 354l140-105" class="link"/><path stroke="#505050" stroke-width=".6" marker-end="url(#arrow)" d="M320.9 396l140-147" class="link"/><path stroke="#505050" stroke-width=".6" marker-end="url(#arrow)" d="M320.9 438l140-189" class="link"/><path stroke="#505050" stroke-width=".6" marker-end="url(#arrow)" d="M320.9 480l140-231" class="link"/><path stroke="#505050" stroke-width=".6" marker-end="url(#arrow)" d="M40.9 270l140 252" class="link"/><path stroke="#505050" stroke-width=".6" marker-end="url(#arrow)" d="M40.9 270l140 294" class="link"/><path stroke="#505050" stroke-width=".6" marker-end="url(#arrow)" d="M40.9 270l140 336" class="link"/><path stroke="#505050" stroke-width=".6" marker-end="url(#arrow)" d="M40.9 270l140 378" class="link"/><path stroke="#505050" stroke-width=".6" marker-end="url(#arrow)" d="M40.9 312l140 210" class="link"/><path stroke="#505050" stroke-width=".6" marker-end="url(#arrow)" d="M40.9 312l140 252" class="link"/><path stroke="#505050" stroke-width=".6" marker-end="url(#arrow)" d="M40.9 312l140 294" class="link"/><path stroke="#505050" stroke-width=".6" marker-end="url(#arrow)" d="M40.9 312l140 336" class="link"/><path stroke="#505050" stroke-width=".6" marker-end="url(#arrow)" d="M40.9 354l140 168" class="link"/><path stroke="#505050" stroke-width=".6" marker-end="url(#arrow)" d="M40.9 354l140 210" class="link"/><path stroke="#505050" stroke-width=".6" marker-end="url(#arrow)" d="M40.9 354l140 252" class="link"/><path stroke="#505050" stroke-width=".6" marker-end="url(#arrow)" d="M40.9 354l140 294" class="link"/><path stroke="#505050" stroke-width=".6" marker-end="url(#arrow)" d="M40.9 396l140 126" class="link"/><path stroke="#505050" stroke-width=".6" marker-end="url(#arrow)" d="M40.9 396l140 168" class="link"/><path stroke="#505050" stroke-width=".6" marker-end="url(#arrow)" d="M40.9 396l140 210" class="link"/><path stroke="#505050" stroke-width=".6" marker-end="url(#arrow)" d="M40.9 396l140 252" class="link"/><path stroke="#505050" stroke-width=".6" marker-end="url(#arrow)" d="M180.9 522l140-336" class="link"/><path stroke="#505050" stroke-width=".6" marker-end="url(#arrow)" d="M180.9 522l140-294" class="link"/><path stroke="#505050" stroke-width=".6" marker-end="url(#arrow)" d="M180.9 522l140-252" class="link"/><path stroke="#505050" stroke-width=".6" marker-end="url(#arrow)" d="M180.9 522l140-210" class="link"/><path stroke="#505050" stroke-width=".6" marker-end="url(#arrow)" d="M180.9 522l140-168" class="link"/><path stroke="#505050" stroke-width=".6" marker-end="url(#arrow)" d="M180.9 522l140-126" class="link"/><path stroke="#505050" stroke-width=".6" marker-end="url(#arrow)" d="M180.9 522l140-84" class="link"/><path stroke="#505050" stroke-width=".6" marker-end="url(#arrow)" d="M180.9 522l140-42" class="link"/><path stroke="#505050" stroke-width=".6" marker-end="url(#arrow)" d="M180.9 564l140-378" class="link"/><path stroke="#505050" stroke-width=".6" marker-end="url(#arrow)" d="M180.9 564l140-336" class="link"/><path stroke="#505050" stroke-width=".6" marker-end="url(#arrow)" d="M180.9 564l140-294" class="link"/><path stroke="#505050" stroke-width=".6" marker-end="url(#arrow)" d="M180.9 564l140-252" class="link"/><path stroke="#505050" stroke-width=".6" marker-end="url(#arrow)" d="M180.9 564l140-210" class="link"/><path stroke="#505050" stroke-width=".6" marker-end="url(#arrow)" d="M180.9 564l140-168" class="link"/><path stroke="#505050" stroke-width=".6" marker-end="url(#arrow)" d="M180.9 564l140-126" class="link"/><path stroke="#505050" stroke-width=".6" marker-end="url(#arrow)" d="M180.9 564l140-84" class="link"/><path stroke="#505050" stroke-width=".6" marker-end="url(#arrow)" d="M180.9 606l140-420" class="link"/><path stroke="#505050" stroke-width=".6" marker-end="url(#arrow)" d="M180.9 606l140-378" class="link"/><path stroke="#505050" stroke-width=".6" marker-end="url(#arrow)" d="M180.9 606l140-336" class="link"/><path stroke="#505050" stroke-width=".6" marker-end="url(#arrow)" d="M180.9 606l140-294" class="link"/><path stroke="#505050" stroke-width=".6" marker-end="url(#arrow)" d="M180.9 606l140-252" class="link"/><path stroke="#505050" stroke-width=".6" marker-end="url(#arrow)" d="M180.9 606l140-210" class="link"/><path stroke="#505050" stroke-width=".6" marker-end="url(#arrow)" d="M180.9 606l140-168" class="link"/><path stroke="#505050" stroke-width=".6" marker-end="url(#arrow)" d="M180.9 606l140-126" class="link"/><path stroke="#505050" stroke-width=".6" marker-end="url(#arrow)" d="M180.9 648l140-462" class="link"/><path stroke="#505050" stroke-width=".6" marker-end="url(#arrow)" d="M180.9 648l140-420" class="link"/><path stroke="#505050" stroke-width=".6" marker-end="url(#arrow)" d="M180.9 648l140-378" class="link"/><path stroke="#505050" stroke-width=".6" marker-end="url(#arrow)" d="M180.9 648l140-336" class="link"/><path stroke="#505050" stroke-width=".6" marker-end="url(#arrow)" d="M180.9 648l140-294" class="link"/><path stroke="#505050" stroke-width=".6" marker-end="url(#arrow)" d="M180.9 648l140-252" class="link"/><path stroke="#505050" stroke-width=".6" marker-end="url(#arrow)" d="M180.9 648l140-210" class="link"/><path stroke="#505050" stroke-width=".6" marker-end="url(#arrow)" d="M180.9 648l140-168" class="link"/><path stroke="#505050" stroke-width=".6" marker-end="url(#arrow)" d="M320.9 186l140 105" class="link"/><path stroke="#505050" stroke-width=".6" marker-end="url(#arrow)" d="M320.9 186l140 147" class="link"/><path stroke="#505050" stroke-width=".6" marker-end="url(#arrow)" d="M320.9 186l140 189" class="link"/><path stroke="#505050" stroke-width=".6" marker-end="url(#arrow)" d="M320.9 186l140 231" class="link"/><path stroke="#505050" stroke-width=".6" marker-end="url(#arrow)" d="M320.9 228l140 63" class="link"/><path stroke="#505050" stroke-width=".6" marker-end="url(#arrow)" d="M320.9 228l140 105" class="link"/><path stroke="#505050" stroke-width=".6" marker-end="url(#arrow)" d="M320.9 228l140 147" class="link"/><path stroke="#505050" stroke-width=".6" marker-end="url(#arrow)" d="M320.9 228l140 189" class="link"/><path stroke="#505050" stroke-width=".6" marker-end="url(#arrow)" d="M320.9 270l140 21" class="link"/><path stroke="#505050" stroke-width=".6" marker-end="url(#arrow)" d="M320.9 270l140 63" class="link"/><path stroke="#505050" stroke-width=".6" marker-end="url(#arrow)" d="M320.9 270l140 105" class="link"/><path stroke="#505050" stroke-width=".6" marker-end="url(#arrow)" d="M320.9 270l140 147" class="link"/><path stroke="#505050" stroke-width=".6" marker-end="url(#arrow)" d="M320.9 312l140-21" class="link"/><path stroke="#505050" stroke-width=".6" marker-end="url(#arrow)" d="M320.9 312l140 21" class="link"/><path stroke="#505050" stroke-width=".6" marker-end="url(#arrow)" d="M320.9 312l140 63" class="link"/><path stroke="#505050" stroke-width=".6" marker-end="url(#arrow)" d="M320.9 312l140 105" class="link"/><path stroke="#505050" stroke-width=".6" marker-end="url(#arrow)" d="M320.9 354l140-63" class="link"/><path stroke="#505050" stroke-width=".6" marker-end="url(#arrow)" d="M320.9 354l140-21" class="link"/><path stroke="#505050" stroke-width=".6" marker-end="url(#arrow)" d="M320.9 354l140 21" class="link"/><path stroke="#505050" stroke-width=".6" marker-end="url(#arrow)" d="M320.9 354l140 63" class="link"/><path stroke="#505050" stroke-width=".6" marker-end="url(#arrow)" d="M320.9 396l140-105" class="link"/><path stroke="#505050" stroke-width=".6" marker-end="url(#arrow)" d="M320.9 396l140-63" class="link"/><path stroke="#505050" stroke-width=".6" marker-end="url(#arrow)" d="M320.9 396l140-21" class="link"/><path stroke="#505050" stroke-width=".6" marker-end="url(#arrow)" d="M320.9 396l140 21" class="link"/><path stroke="#505050" stroke-width=".6" marker-end="url(#arrow)" d="M320.9 438l140-147" class="link"/><path stroke="#505050" stroke-width=".6" marker-end="url(#arrow)" d="M320.9 438l140-105" class="link"/><path stroke="#505050" stroke-width=".6" marker-end="url(#arrow)" d="M320.9 438l140-63" class="link"/><path stroke="#505050" stroke-width=".6" marker-end="url(#arrow)" d="M320.9 438l140-21" class="link"/><path stroke="#505050" stroke-width=".6" marker-end="url(#arrow)" d="M320.9 480l140-189" class="link"/><path stroke="#505050" stroke-width=".6" marker-end="url(#arrow)" d="M320.9 480l140-147" class="link"/><path stroke="#505050" stroke-width=".6" marker-end="url(#arrow)" d="M320.9 480l140-105" class="link"/><path stroke="#505050" stroke-width=".6" marker-end="url(#arrow)" d="M320.9 480l140-63" class="link"/><path stroke="#505050" stroke-width=".6" marker-end="url(#arrow)" d="M460.9 249l140 42" class="link"/><path stroke="#505050" stroke-width=".6" marker-end="url(#arrow)" d="M460.9 249l140 84" class="link"/><path stroke="#505050" stroke-width=".6" marker-end="url(#arrow)" d="M460.9 249l140 126" class="link"/><path stroke="#505050" stroke-width=".6" marker-end="url(#arrow)" d="M460.9 291h140" class="link"/><path stroke="#505050" stroke-width=".6" marker-end="url(#arrow)" d="M460.9 291l140 42" class="link"/><path stroke="#505050" stroke-width=".6" marker-end="url(#arrow)" d="M460.9 291l140 84" class="link"/><path stroke="#505050" stroke-width=".6" marker-end="url(#arrow)" d="M460.9 333l140-42" class="link"/><path stroke="#505050" stroke-width=".6" marker-end="url(#arrow)" d="M460.9 333h140" class="link"/><path stroke="#505050" stroke-width=".6" marker-end="url(#arrow)" d="M460.9 333l140 42" class="link"/><path stroke="#505050" stroke-width=".6" marker-end="url(#arrow)" d="M460.9 375l140-84" class="link"/><path stroke="#505050" stroke-width=".6" marker-end="url(#arrow)" d="M460.9 375l140-42" class="link"/><path stroke="#505050" stroke-width=".6" marker-end="url(#arrow)" d="M460.9 375h140" class="link"/><path stroke="#505050" stroke-width=".6" marker-end="url(#arrow)" d="M460.9 417l140-126" class="link"/><path stroke="#505050" stroke-width=".6" marker-end="url(#arrow)" d="M460.9 417l140-84" class="link"/><path stroke="#505050" stroke-width=".6" marker-end="url(#arrow)" d="M460.9 417l140-42" class="link"/><path stroke="#505050" stroke-width=".6" marker-end="url(#arrow)" d="M600.9 291l140 42" class="link"/><path stroke="#505050" stroke-width=".6" marker-end="url(#arrow)" d="M600.9 333h140" class="link"/><path stroke="#505050" stroke-width=".6" marker-end="url(#arrow)" d="M600.9 375l140-42" class="link"/><circle cx="40.9" cy="270.1" r="11.5" fill="#fff" stroke="#333" class="node"/><circle cx="40.9" cy="312.1" r="11.5" fill="#fff" stroke="#333" class="node"/><circle cx="40.9" cy="354.1" r="11.5" fill="#fff" stroke="#333" class="node"/><circle cx="40.9" cy="396.1" r="11.5" fill="#fff" stroke="#333" class="node"/><circle cx="180.9" cy="18.1" r="11.5" fill="#fff" stroke="#333" class="node"/><circle cx="180.9" cy="60.1" r="11.5" fill="#fff" stroke="#333" class="node"/><circle cx="180.9" cy="102.1" r="11.5" fill="#fff" stroke="#333" class="node"/><circle cx="180.9" cy="144.1" r="11.5" fill="#fff" stroke="#333" class="node"/><circle cx="180.9" cy="186.1" r="11.5" fill="#fff" stroke="#333" class="node"/><circle cx="180.9" cy="228.1" r="11.5" fill="#fff" stroke="#333" class="node"/><circle cx="180.9" cy="270.1" r="11.5" fill="#fff" stroke="#333" class="node"/><circle cx="180.9" cy="312.1" r="11.5" fill="#fff" stroke="#333" class="node"/><circle cx="180.9" cy="354.1" r="11.5" fill="#fff" stroke="#333" class="node"/><circle cx="180.9" cy="396.1" r="11.5" fill="#fff" stroke="#333" class="node"/><circle cx="180.9" cy="438.1" r="11.5" fill="#fff" stroke="#333" class="node"/><circle cx="180.9" cy="480.1" r="11.5" fill="#fff" stroke="#333" class="node"/><circle cx="180.9" cy="522.1" r="11.5" fill="#fff" stroke="#333" class="node"/><circle cx="180.9" cy="564.1" r="11.5" fill="#fff" stroke="#333" class="node"/><circle cx="180.9" cy="606.1" r="11.5" fill="#fff" stroke="#333" class="node"/><circle cx="180.9" cy="648.1" r="11.5" fill="#fff" stroke="#333" class="node"/><circle cx="320.9" cy="186.1" r="11.5" fill="#fff" stroke="#333" class="node"/><circle cx="320.9" cy="228.1" r="11.5" fill="#fff" stroke="#333" class="node"/><circle cx="320.9" cy="270.1" r="11.5" fill="#fff" stroke="#333" class="node"/><circle cx="320.9" cy="312.1" r="11.5" fill="#fff" stroke="#333" class="node"/><circle cx="320.9" cy="354.1" r="11.5" fill="#fff" stroke="#333" class="node"/><circle cx="320.9" cy="396.1" r="11.5" fill="#fff" stroke="#333" class="node"/><circle cx="320.9" cy="438.1" r="11.5" fill="#fff" stroke="#333" class="node"/><circle cx="320.9" cy="480.1" r="11.5" fill="#fff" stroke="#333" class="node"/><circle cx="460.9" cy="249.1" r="11.5" fill="#fff" stroke="#333" class="node"/><text x="5.9" y="690.1" class="text" dy="3.6" font-size="12">Input Layer ∈ ℝ⁴</text><text x="145.9" y="690.1" class="text" dy="3.6" font-size="12">Hidden Layer ∈ ℝ¹⁶</text><text x="285.9" y="690.1" class="text" dy="3.6" font-size="12">Hidden Layer ∈ ℝ⁸</text><text x="425.9" y="690.1" class="text" dy="3.6" font-size="12">Hidden Layer ∈ ℝ⁵</text><circle cx="460.9" cy="291.1" r="11.5" fill="#fff" stroke="#333" class="node"/><circle cx="460.9" cy="333.1" r="11.5" fill="#fff" stroke="#333" class="node"/><circle cx="460.9" cy="375.1" r="11.5" fill="#fff" stroke="#333" class="node"/><circle cx="460.9" cy="417.1" r="11.5" fill="#fff" stroke="#333" class="node"/><circle cx="600.9" cy="291.1" r="11.5" fill="#fff" stroke="#333" class="node"/><circle cx="600.9" cy="333.1" r="11.5" fill="#fff" stroke="#333" class="node"/><circle cx="600.9" cy="375.1" r="11.5" fill="#fff" stroke="#333" class="node"/><text x="565.9" y="690.1" class="text" dy="3.6" font-size="12">Hidden Layer ∈ ℝ³</text><circle cx="740.9" cy="333.1" r="11.5" fill="#fff" stroke="#333" class="node"/><text x="705.9" y="690.1" class="text" dy="3.6" font-size="12">Output Layer ∈ ℝ¹</text><defs id="defs1196"><marker id="arrow" markerHeight="7" markerWidth="7" orient="auto" refX="44.2" viewBox="0 -5 10 10"><path id="path1193" fill="#505050" stroke="#505050" d="M0-5l10 5L0 5"/></marker></defs></svg>