<svg xmlns="http://www.w3.org/2000/svg" xmlns:xlink="http://www.w3.org/1999/xlink" version="1.2" viewBox="0 0 164 60"><defs><symbol id="a" overflow="visible"><path d="M2.531.094C2.344.945 2.062 1.582 1.687 2a1.779 1.779 0 0 1-1.39.625c-.168 0-.297-.012-.39-.031l.109-.516c.039.008.129.016.265.016a.736.736 0 0 0 .453-.14c.125-.087.239-.243.344-.47.113-.218.219-.527.313-.921l1.25-5.579h-.985l.078-.406c.27-.008.461-.023.579-.047a.673.673 0 0 0 .265-.125.821.821 0 0 0 .156-.218c.051-.094.11-.254.172-.485.207-.707.524-1.238.953-1.594.438-.351.989-.53 1.657-.53.382 0 .718.03 1 .093l-.235 1h-.515c-.055-.219-.125-.375-.22-.469-.085-.101-.214-.156-.39-.156a.872.872 0 0 0-.562.187 1.528 1.528 0 0 0-.407.547c-.105.242-.203.57-.296.985l-.141.625h1.5l-.125.593H3.609zm0 0"/></symbol><symbol id="b" overflow="visible"><path d="M4.906-1.172a4.522 4.522 0 0 1-1.156.953c-.387.211-.84.313-1.36.313-.562 0-1-.172-1.312-.516C.766-.766.61-1.25.61-1.875c0-.414.07-.863.22-1.344.155-.476.382-.906.687-1.281.312-.383.68-.68 1.109-.89a3.07 3.07 0 0 1 1.36-.313c.468 0 .816.101 1.046.297.239.187.36.484.36.89 0 .668-.313 1.168-.938 1.5-.617.325-1.539.485-2.766.485a4.372 4.372 0 0 0-.062.765c0 .407.078.704.234.891.157.188.414.281.782.281.363 0 .691-.078.984-.234.29-.156.598-.395.922-.719zm-3.125-1.86a6.27 6.27 0 0 0 1.422-.14c.395-.094.695-.242.906-.453.22-.207.329-.492.329-.86 0-.226-.06-.41-.172-.546-.118-.133-.282-.203-.5-.203-.399 0-.778.199-1.141.593-.367.399-.648.934-.844 1.61zm0 0"/></symbol><symbol id="c" overflow="visible"><path d="M5.031-5.313l.547-.39.375.094-.86 3.718c-.093.368-.14.653-.14.86 0 .156.024.273.078.343.051.075.133.11.25.11a.61.61 0 0 0 .36-.14c.132-.102.328-.286.578-.548l.328.329c-.356.375-.656.64-.906.796a1.44 1.44 0 0 1-.797.235.748.748 0 0 1-.578-.235c-.149-.164-.22-.379-.22-.64 0-.219.04-.446.126-.688L4.109-1.5c-.375.555-.734.96-1.078 1.219-.336.25-.687.375-1.062.375-.43 0-.762-.16-1-.485-.242-.332-.36-.789-.36-1.375C.61-2.43.74-3.07 1-3.687c.27-.626.633-1.114 1.094-1.47a2.47 2.47 0 0 1 1.547-.546c.25 0 .484.031.703.094.226.054.457.152.687.296zm-.515 1.75a3.32 3.32 0 0 0 .078-.421c.008-.114.015-.239.015-.375 0-.301-.07-.52-.203-.657-.125-.144-.343-.218-.656-.218-.398 0-.758.164-1.078.484-.324.324-.574.762-.75 1.313a5.146 5.146 0 0 0-.266 1.624c0 .407.051.711.157.907.113.199.3.297.562.297.258 0 .516-.11.766-.329.25-.218.504-.535.765-.953.258-.414.446-.89.563-1.421zm0 0"/></symbol><symbol id="d" overflow="visible"><path d="M4.078-1.11c-.344.407-.672.712-.984.907a1.8 1.8 0 0 1-.985.297C1.285.094.875-.316.875-1.141c0-.257.035-.535.11-.828l.687-3.047H.688l.093-.406c.227 0 .399-.016.516-.047a.839.839 0 0 0 .297-.125.671.671 0 0 0 .218-.234c.07-.102.141-.234.204-.39.062-.157.156-.43.28-.829h.798L2.78-5.609h1.781l-.125.593h-1.78l-.532 2.282c-.105.437-.172.757-.203.953a3.79 3.79 0 0 0-.031.468c0 .481.203.72.609.72.164 0 .344-.063.531-.188.196-.133.43-.36.703-.672zm0 0"/></symbol><symbol id="e" overflow="visible"><path d="M5.281-1.89c-.086.374-.125.663-.125.859 0 .156.024.273.078.343.051.075.13.11.235.11.125 0 .25-.047.375-.14.133-.102.32-.286.562-.548l.344.329c-.355.375-.656.64-.906.796-.25.157-.516.235-.797.235-.25 0-.45-.078-.594-.235-.137-.164-.203-.379-.203-.64 0-.219.047-.453.14-.703L4.314-1.5c-.387.543-.75.945-1.094 1.203-.344.262-.7.39-1.063.39-.367 0-.648-.1-.844-.312-.199-.218-.296-.508-.296-.875 0-.25.054-.597.171-1.047l.391-1.546c.102-.415.156-.711.156-.891 0-.156-.027-.27-.078-.344-.054-.07-.136-.11-.25-.11-.117 0-.242.055-.375.157-.136.094-.324.273-.562.531L.14-4.672c.332-.332.582-.562.75-.687.164-.125.328-.211.484-.266a1.66 1.66 0 0 1 .516-.078.76.76 0 0 1 .593.25c.145.168.22.398.22.687 0 .305-.063.688-.188 1.157l-.25 1c-.075.261-.125.464-.157.609-.023.148-.043.273-.062.375a2.427 2.427 0 0 0-.016.266c0 .273.04.468.125.593.094.118.242.172.453.172.164 0 .344-.062.532-.187.187-.133.382-.332.593-.594.22-.27.391-.531.516-.781a3.82 3.82 0 0 0 .328-.922l.547-2.531h1.016zm0 0"/></symbol><symbol id="f" overflow="visible"><path d="M2.61-4.188c.374-.519.738-.898 1.093-1.14.352-.25.711-.375 1.078-.375.282 0 .52.027.719.078l-.281 1.313h-.61a1.438 1.438 0 0 0-.093-.375c-.043-.094-.094-.157-.157-.188a.41.41 0 0 0-.218-.063c-.149 0-.305.063-.47.188-.167.117-.355.305-.562.563-.199.261-.359.511-.484.75-.125.23-.23.53-.313.906L1.766 0H.75l.844-3.719c.05-.226.082-.406.093-.531.02-.133.032-.242.032-.328 0-.156-.028-.27-.078-.344-.043-.07-.121-.11-.235-.11a.659.659 0 0 0-.39.157 4.824 4.824 0 0 0-.547.531L.14-4.672c.351-.375.648-.64.89-.797.25-.156.52-.234.813-.234.238 0 .43.086.578.25.144.156.219.367.219.625 0 .2-.04.402-.11.61zm0 0"/></symbol><symbol id="g" overflow="visible"><path d="M3.047-8l-.063.281c-.18.024-.312.074-.406.157a.704.704 0 0 0-.203.343 2.981 2.981 0 0 0-.047.594c0 .055.004.23.016.531L2.5-1.812v.468h.063l2.53-4.578c.157-.27.27-.5.345-.687.07-.196.109-.368.109-.516 0-.332-.2-.531-.594-.594L5.016-8h2.406l-.063.281c-.105.024-.21.063-.312.125a1.6 1.6 0 0 0-.328.328c-.117.149-.297.434-.547.86l-3.75 6.5H1.64L1.25-6.438a3.98 3.98 0 0 0-.078-.656.969.969 0 0 0-.203-.422C.883-7.617.75-7.687.563-7.719L.625-8zm0 0"/></symbol><symbol id="h" overflow="visible"><path d="M4.406-4.203c0-.29-.023-.504-.062-.64a.542.542 0 0 0-.203-.298.705.705 0 0 0-.391-.093c-.398 0-.75.156-1.063.468-.312.313-.57.762-.765 1.344a5.036 5.036 0 0 0-.297 1.656c0 .399.078.696.234.891.157.188.391.281.704.281.351 0 .66-.066.921-.203.258-.133.532-.348.813-.64l.36.359c-.368.406-.735.703-1.11.89a2.658 2.658 0 0 1-1.203.282c-.563 0-.996-.164-1.297-.5-.293-.332-.438-.82-.438-1.469 0-.414.079-.875.235-1.375.156-.5.383-.938.687-1.313a2.91 2.91 0 0 1 1.047-.859 3.05 3.05 0 0 1 1.297-.281c.52 0 1 .062 1.438.187L5.03-4.203zm0 0"/></symbol><symbol id="i" overflow="visible"><path d="M2.563.094c-.618 0-1.09-.164-1.422-.5-.336-.344-.5-.832-.5-1.469 0-.313.046-.672.14-1.078a4.079 4.079 0 0 1 .61-1.453c.289-.414.644-.735 1.062-.953a2.827 2.827 0 0 1 1.375-.344c.625 0 1.098.172 1.422.516.332.343.5.835.5 1.468 0 .461-.078.95-.234 1.469-.157.512-.375.945-.657 1.297a2.675 2.675 0 0 1-.984.781 3.138 3.138 0 0 1-1.313.266zm-.891-1.719c0 .43.086.746.266.953.175.211.445.313.812.313.375 0 .707-.172 1-.516.3-.344.535-.82.703-1.438.176-.624.266-1.171.266-1.64 0-.426-.086-.742-.25-.953-.157-.219-.414-.328-.766-.328-.406 0-.762.171-1.062.515-.305.344-.543.836-.72 1.469-.167.625-.25 1.168-.25 1.625zm0 0"/></symbol><symbol id="j" overflow="visible"><path d="M.875-4.25v-.781h7.219v.781zm0 2.422v-.781h7.219v.78zm7.469-1.594zm0 0"/></symbol><symbol id="k" overflow="visible"><path d="M4.828-3.625c.188.137.336.305.453.5.114.2.207.469.282.813l.14.687c.04.21.086.402.14.578.052.168.114.305.188.406a.864.864 0 0 0 .266.235c.094.054.234.094.422.125L6.656 0H5.031a8.16 8.16 0 0 1-.328-1.25l-.266-1.234a2.819 2.819 0 0 0-.156-.547.735.735 0 0 0-.218-.328.593.593 0 0 0-.297-.157 1.388 1.388 0 0 0-.391-.046h-.672l-.406 1.859c-.043.148-.07.266-.078.36a6.315 6.315 0 0 0-.031.296c-.012.094-.016.18-.016.25a.76.76 0 0 0 .047.297c.039.063.097.11.172.14a1.8 1.8 0 0 0 .421.079L2.75 0H.328l.078-.281a.872.872 0 0 0 .328-.125.7.7 0 0 0 .188-.219 1.95 1.95 0 0 0 .14-.344c.04-.133.102-.394.188-.781l1-4.516c.082-.382.125-.691.125-.921 0-.188-.047-.317-.14-.391-.087-.07-.227-.117-.422-.14L1.875-8h2.61c.406 0 .738.027 1 .078.269.043.492.117.671.219.188.094.344.219.469.375s.219.336.281.531c.063.188.094.39.094.61 0 .605-.184 1.12-.547 1.546-.367.418-.906.735-1.625.954zM3.5-4.063c.57 0 1.02-.078 1.344-.234.332-.156.593-.406.781-.75a2.311 2.311 0 0 0 .234-1.562 1.176 1.176 0 0 0-.125-.329.61.61 0 0 0-.187-.234 1.215 1.215 0 0 0-.297-.172 1.616 1.616 0 0 0-.406-.11 5.008 5.008 0 0 0-.625-.03c-.211 0-.43.011-.657.03l-.75 3.391zm0 0"/></symbol><symbol id="l" overflow="visible"><path d="M2.063-2.969c0 1.367.218 2.492.656 3.375.445.895 1.117 1.492 2.015 1.797l-.14.453C3.457 2.352 2.582 1.703 1.969.703c-.606-.988-.907-2.191-.907-3.61 0-1.405.301-2.609.907-3.609.613-1 1.488-1.648 2.625-1.953l.172.453c-.918.305-1.602.891-2.047 1.766-.438.867-.656 1.96-.656 3.281zm0 0"/></symbol><symbol id="m" overflow="visible"><path d="M4.016-8l-.063.281a.802.802 0 0 0-.406.188c-.094.086-.14.21-.14.375 0 .25.062.562.187.937l.484 1.422 1.078-1.375a6.77 6.77 0 0 0 .407-.516c.093-.132.156-.253.187-.359a.78.78 0 0 0 .063-.266.401.401 0 0 0-.094-.265c-.063-.07-.168-.117-.313-.14L5.47-8h2.187l-.062.281a1.131 1.131 0 0 0-.344.188 3.347 3.347 0 0 0-.36.343c-.148.157-.413.465-.796.922l-1.75 2.094.86 2.375c.124.356.226.633.312.828.082.188.156.324.218.406.051.075.102.133.157.172.062.032.156.07.28.11L6.11 0H3.75l.047-.281c.187-.031.328-.094.422-.188a.507.507 0 0 0 .14-.375c0-.226-.046-.484-.14-.765l-.61-1.797-1.328 1.672c-.21.25-.36.46-.453.625a.868.868 0 0 0-.125.406c0 .148.035.25.11.312.07.055.175.09.312.11L2.062 0H-.124l.063-.281a1.01 1.01 0 0 0 .328-.172 2.33 2.33 0 0 0 .39-.375c.156-.188.43-.516.828-.985l1.86-2.203-.875-2.406c-.149-.406-.262-.68-.344-.828a.887.887 0 0 0-.234-.328.885.885 0 0 0-.313-.14L1.641-8zm0 0"/></symbol><symbol id="o" overflow="visible"><path d="M2.578-4.11c.363-.538.723-.94 1.078-1.202.352-.258.711-.391 1.078-.391.375 0 .657.11.844.328.195.21.297.516.297.922v.172c.332-.477.664-.832 1-1.063.332-.238.68-.36 1.047-.36.351 0 .629.106.828.313.195.211.297.5.297.875 0 .25-.059.602-.172 1.047l-.39 1.547c-.106.418-.157.715-.157.89 0 .157.024.274.078.345.051.074.133.109.25.109a.61.61 0 0 0 .36-.14c.132-.102.328-.286.578-.548l.328.329c-.336.355-.625.617-.875.78-.25.165-.54.25-.86.25a.779.779 0 0 1-.609-.265 1.061 1.061 0 0 1-.234-.703c0-.25.066-.625.203-1.125l.25-1c.094-.375.156-.645.187-.813.032-.175.047-.32.047-.437 0-.27-.047-.46-.14-.578-.086-.125-.23-.188-.438-.188-.168 0-.344.063-.531.188-.188.125-.387.32-.594.578-.2.262-.367.516-.5.766-.137.25-.242.558-.312.921L4.984 0H3.97l.672-2.984c.082-.352.14-.618.171-.797.032-.176.047-.328.047-.453 0-.282-.054-.477-.156-.594-.105-.125-.262-.188-.469-.188-.148 0-.312.063-.5.188-.187.125-.39.324-.609.594-.219.273-.39.53-.516.78-.117.25-.214.56-.296.923L1.765 0H.75l.844-3.719c.093-.375.14-.66.14-.86 0-.155-.027-.269-.078-.343-.054-.07-.136-.11-.25-.11-.117 0-.242.055-.375.157-.136.094-.324.273-.562.531L.14-4.672c.343-.351.64-.613.89-.781.25-.164.52-.25.813-.25.25 0 .441.086.578.25.144.156.219.367.219.625 0 .219-.043.45-.125.687zm0 0"/></symbol><symbol id="p" overflow="visible"><path d="M1.813-1.36c.05.274.078.544.078.813 0 .274-.047.524-.141.75a2.24 2.24 0 0 1-.453.672c-.2.227-.48.477-.844.75l-.312-.36C.336 1.079.477.907.562.75A1.6 1.6 0 0 0 .766.234a3.58 3.58 0 0 0 .062-.718c0-.29-.015-.582-.047-.875zm0 0"/></symbol><symbol id="q" overflow="visible"><path d="M3.094-2.406a1.064 1.064 0 0 0-.125-.313.347.347 0 0 0-.14-.125.757.757 0 0 0-.267-.031h-.406L1.546 0h-1l1.5-6.703c.052-.219.087-.39.11-.516.02-.133.031-.25.031-.343 0-.165-.054-.282-.156-.344-.094-.07-.273-.11-.531-.11l.078-.312 1.469-.047h.344L2.25-3.265h.188c.289 0 .617-.126.984-.376.363-.257.656-.5.875-.718.219-.22.328-.43.328-.641 0-.188-.137-.29-.406-.313l.078-.296h1.89l.11.296c-.324.293-.668.579-1.031.86L3.812-3.328l.579 2.11c.039.187.082.323.125.405a.63.63 0 0 0 .125.172c.05.032.117.047.203.047.101 0 .222-.05.36-.156a4.03 4.03 0 0 0 .484-.469l.328.328c-.356.368-.649.621-.875.766-.23.145-.45.219-.657.219-.273 0-.484-.074-.64-.219-.156-.156-.281-.41-.375-.766zm0 0"/></symbol><symbol id="r" overflow="visible"><path d="M2.906-2.969c0-1.32-.219-2.414-.656-3.281A3.389 3.389 0 0 0 .219-8.016l.156-.453c1.145.305 2.02.953 2.625 1.953.613 1 .922 2.204.922 3.61 0 1.418-.309 2.62-.922 3.61-.605 1-1.48 1.648-2.625 1.952l-.14-.453C1.14 1.898 1.812 1.301 2.25.406c.438-.883.656-2.008.656-3.375zm0 0"/></symbol><symbol id="s" overflow="visible"><path d="M2.297-1.703a6.64 6.64 0 0 0-.11.547 4.215 4.215 0 0 0-.015.36c0 .179.039.304.125.374.094.074.242.121.453.14L2.672 0H.328l.078-.281a.872.872 0 0 0 .328-.125.7.7 0 0 0 .188-.219 1.95 1.95 0 0 0 .14-.344c.04-.133.102-.394.188-.781l1-4.516c.082-.382.125-.695.125-.937 0-.188-.047-.313-.14-.375-.087-.07-.227-.117-.422-.14L1.875-8h2.344l-.063.281c-.156.032-.265.07-.328.11a.62.62 0 0 0-.172.187 1.276 1.276 0 0 0-.156.36 9.535 9.535 0 0 0-.203.812zm0 0"/></symbol><symbol id="n" overflow="visible"><path d="M1.594-4.219c.031-.125.05-.234.062-.328.02-.094.032-.176.032-.25 0-.113-.032-.195-.094-.25-.063-.05-.184-.078-.36-.078l.063-.266h1.766l-.047.25a3.287 3.287 0 0 0-.25.063.305.305 0 0 0-.141.125 1.132 1.132 0 0 0-.094.25c-.031.117-.074.281-.125.5L1.562-.437h1.079c.156 0 .285-.008.39-.032a.75.75 0 0 0 .313-.172A1.32 1.32 0 0 0 3.609-1c.094-.156.192-.363.297-.625h.453L3.938 0H.28l.031-.25c.094-.02.165-.04.22-.063a.33.33 0 0 0 .14-.109.701.701 0 0 0 .125-.266c.031-.125.07-.289.125-.5zm0 0"/></symbol><symbol id="t" overflow="visible"><path d="M2-2.344c-.031.149-.07.305-.11.469-.042.168-.085.336-.124.5a30.05 30.05 0 0 1-.094.453 1.966 1.966 0 0 0-.031.328c0 .063.004.117.015.156a.21.21 0 0 0 .078.094.48.48 0 0 0 .141.063c.063.011.14.023.234.031L2.047 0H.28l.031-.25c.094-.02.165-.04.22-.063a.33.33 0 0 0 .14-.109.971.971 0 0 0 .11-.266c.038-.125.085-.289.14-.5l.672-3.03c.031-.126.05-.235.062-.329.02-.094.032-.172.032-.234 0-.125-.032-.211-.094-.266-.063-.05-.184-.078-.36-.078l.063-.266h1.906c.375 0 .68.032.922.094.238.063.43.152.578.266.156.117.258.25.313.406.062.148.093.309.093.484 0 .407-.125.75-.375 1.032-.25.273-.632.48-1.14.625v.062a.957.957 0 0 1 .297.328c.082.137.156.313.218.531.063.262.114.477.157.641.05.156.101.281.156.375.05.086.117.152.203.203.094.043.219.074.375.094L4.937 0H3.72a5.095 5.095 0 0 1-.14-.39 20.787 20.787 0 0 1-.126-.47l-.14-.562a2.57 2.57 0 0 0-.11-.39 1.027 1.027 0 0 0-.11-.266.464.464 0 0 0-.327-.235 1.119 1.119 0 0 0-.282-.03zm.578-.422c.55 0 .973-.109 1.266-.328.289-.226.437-.57.437-1.031a.856.856 0 0 0-.078-.375.524.524 0 0 0-.219-.266 1.046 1.046 0 0 0-.375-.14 2.688 2.688 0 0 0-.546-.047c-.075 0-.153.008-.235.016h-.25l-.5 2.171zm0 0"/></symbol></defs><g transform="translate(-214.908 -79.109)"><use width="100%" height="100%" x="215.57" y="112.34" xlink:href="#a"/><use width="100%" height="100%" x="222.17" y="112.34" xlink:href="#b"/></g><use width="100%" height="100%" x="228.158" y="112.34" transform="translate(-214.908 -79.109)" xlink:href="#c"/><use width="100%" height="100%" x="234.866" y="112.34" transform="translate(-214.908 -79.109)" xlink:href="#d"/><use width="100%" height="100%" x="239.546" y="112.34" transform="translate(-214.908 -79.109)" xlink:href="#e"/><use width="100%" height="100%" x="246.386" y="112.34" transform="translate(-214.908 -79.109)" xlink:href="#f"/><use width="100%" height="100%" x="252.134" y="112.34" transform="translate(-214.908 -79.109)" xlink:href="#b"/><use width="100%" height="100%" x="258.122" y="112.34" transform="translate(-214.908 -79.109)" xlink:href="#g"/><use width="100%" height="100%" x="265.67" y="112.34" transform="translate(-214.908 -79.109)" xlink:href="#b"/><g transform="translate(-214.908 -79.109)"><use width="100%" height="100%" x="271.658" y="112.34" xlink:href="#h"/><use width="100%" height="100%" x="277.178" y="112.34" xlink:href="#d"/></g><use width="100%" height="100%" x="281.858" y="112.34" transform="translate(-214.908 -79.109)" xlink:href="#i"/><use width="100%" height="100%" x="288.218" y="112.34" transform="translate(-214.908 -79.109)" xlink:href="#f"/><use width="100%" height="100%" x="297.53" y="112.34" transform="translate(-214.908 -79.109)" xlink:href="#j"/><g transform="translate(-214.908 -79.109)"><use width="100%" height="100%" x="310.73" y="88.92" xlink:href="#k"/><use width="100%" height="100%" x="318.41" y="88.92" xlink:href="#b"/></g><use width="100%" height="100%" x="324.67" y="88.92" transform="translate(-214.908 -79.109)" xlink:href="#l"/><use width="100%" height="100%" x="329.71" y="88.92" transform="translate(-214.908 -79.109)" xlink:href="#m"/><use width="100%" height="100%" x="337.03" y="91.34" transform="translate(-214.908 -79.109)" xlink:href="#n"/><use width="100%" height="100%" x="342.31" y="88.44" transform="translate(-214.908 -79.109)" xlink:href="#l"/><use width="100%" height="100%" x="347.35" y="88.92" transform="translate(-214.908 -79.109)" xlink:href="#o"/><use width="100%" height="100%" x="357.43" y="88.92" transform="translate(-214.908 -79.109)" xlink:href="#p"/><use width="100%" height="100%" x="361.99" y="88.92" transform="translate(-214.908 -79.109)" xlink:href="#q"/><use width="100%" height="100%" x="368.95" y="88.44" transform="translate(-214.908 -79.109)" xlink:href="#r"/><use width="100%" height="100%" x="373.99" y="88.92" transform="translate(-214.908 -79.109)" xlink:href="#r"/><g transform="translate(-214.908 -79.109)"><use width="100%" height="100%" x="310.25" y="104.3" xlink:href="#s"/><use width="100%" height="100%" x="314.81" y="104.3" xlink:href="#o"/></g><use width="100%" height="100%" x="325.15" y="104.3" transform="translate(-214.908 -79.109)" xlink:href="#l"/><use width="100%" height="100%" x="330.19" y="104.3" transform="translate(-214.908 -79.109)" xlink:href="#m"/><use width="100%" height="100%" x="337.39" y="106.7" transform="translate(-214.908 -79.109)" xlink:href="#n"/><use width="100%" height="100%" x="342.79" y="103.82" transform="translate(-214.908 -79.109)" xlink:href="#l"/><use width="100%" height="100%" x="347.83" y="104.3" transform="translate(-214.908 -79.109)" xlink:href="#o"/><use width="100%" height="100%" x="357.91" y="104.3" transform="translate(-214.908 -79.109)" xlink:href="#p"/><use width="100%" height="100%" x="362.35" y="104.3" transform="translate(-214.908 -79.109)" xlink:href="#q"/><use width="100%" height="100%" x="369.31" y="103.82" transform="translate(-214.908 -79.109)" xlink:href="#r"/><use width="100%" height="100%" x="374.35" y="104.3" transform="translate(-214.908 -79.109)" xlink:href="#r"/><g transform="translate(-214.908 -79.109)"><use width="100%" height="100%" x="310.25" y="119.78" xlink:href="#k"/><use width="100%" height="100%" x="317.93" y="119.78" xlink:href="#b"/></g><use width="100%" height="100%" x="324.19" y="119.78" transform="translate(-214.908 -79.109)" xlink:href="#l"/><use width="100%" height="100%" x="329.23" y="119.78" transform="translate(-214.908 -79.109)" xlink:href="#m"/><use width="100%" height="100%" x="336.43" y="122.18" transform="translate(-214.908 -79.109)" xlink:href="#t"/><use width="100%" height="100%" x="342.79" y="119.3" transform="translate(-214.908 -79.109)" xlink:href="#l"/><use width="100%" height="100%" x="347.83" y="119.78" transform="translate(-214.908 -79.109)" xlink:href="#o"/><use width="100%" height="100%" x="357.91" y="119.78" transform="translate(-214.908 -79.109)" xlink:href="#p"/><use width="100%" height="100%" x="362.47" y="119.78" transform="translate(-214.908 -79.109)" xlink:href="#q"/><use width="100%" height="100%" x="369.43" y="119.3" transform="translate(-214.908 -79.109)" xlink:href="#r"/><use width="100%" height="100%" x="374.47" y="119.78" transform="translate(-214.908 -79.109)" xlink:href="#r"/><g transform="translate(-214.908 -79.109)"><use width="100%" height="100%" x="309.77" y="135.26" xlink:href="#s"/><use width="100%" height="100%" x="314.33" y="135.26" xlink:href="#o"/></g><use width="100%" height="100%" x="324.67" y="135.26" transform="translate(-214.908 -79.109)" xlink:href="#l"/><use width="100%" height="100%" x="329.71" y="135.26" transform="translate(-214.908 -79.109)" xlink:href="#m"/><use width="100%" height="100%" x="336.91" y="137.66" transform="translate(-214.908 -79.109)" xlink:href="#t"/><use width="100%" height="100%" x="343.27" y="134.78" transform="translate(-214.908 -79.109)" xlink:href="#l"/><use width="100%" height="100%" x="348.31" y="135.26" transform="translate(-214.908 -79.109)" xlink:href="#o"/><use width="100%" height="100%" x="358.39" y="135.26" transform="translate(-214.908 -79.109)" xlink:href="#p"/><use width="100%" height="100%" x="362.95" y="135.26" transform="translate(-214.908 -79.109)" xlink:href="#q"/><use width="100%" height="100%" x="369.91" y="134.78" transform="translate(-214.908 -79.109)" xlink:href="#r"/><use width="100%" height="100%" x="374.95" y="135.26" transform="translate(-214.908 -79.109)" xlink:href="#r"/><use width="100%" height="100%" x="371.23" y="209.54" transform="translate(-214.908 -79.109)" xlink:href="#u"/></svg>