<svg xmlns="http://www.w3.org/2000/svg" width="1546" height="810" stroke="#000" stroke-linecap="square" stroke-miterlimit="10" color-interpolation="auto" font-family="Dialog" font-size="12" font-weight="400"><g transform="translate(-196.03460208 -44.85121107)"><defs><clipPath id="a"><path d="M0 0h1920v912H0z"/></clipPath></defs><path fill="#fff" stroke="none" d="M0 0h1920v912H0z" clip-path="url(#a)"/><g fill="#fff" stroke="none" color-interpolation="sRGB" color-rendering="optimizeSpeed" image-rendering="optimizeSpeed" shape-rendering="crispEdges" text-rendering="optimizeSpeed"><path d="M0 0h1920v912H0z"/><path d="M250 812h1488V68H250z"/></g><g fill="none" fill-opacity=".14900004" stroke="#262626" stroke-linecap="butt" stroke-linejoin="round" stroke-opacity=".14900004" stroke-width=".66670001" color-interpolation="linearRGB" color-rendering="optimizeQuality" image-rendering="optimizeQuality" text-rendering="geometricPrecision"><path d="M1738 812H250M1738 790.74291992H250M1738 769.48571777H250M1738 748.22857666H250M1738 726.97137451H250M1738 705.71429443H250M1738 684.45721436H250M1738 663.20001221H250M1738 641.94287109H250M1738 620.68572998H250M1738 599.42858887H250M1738 578.17138672H250M1738 556.91430664H250M1738 535.65722656H250M1738 514.40002441H250M1738 493.14291382H250M1738 471.88571167H250M1738 450.62860107H250M1738 429.37139893H250M1738 408.11428833H250M1738 386.85708618H250M1738 365.6000061H250M1738 344.34289551H250M1738 323.08569336H250M1738 301.82861328H250M1738 280.57141113H250M1738 259.31430054H250M1738 238.05709839H250M1738 216.80000305H250M1738 195.54289246H250M1738 174.28570557H250M1738 153.02859497H250M1738 131.77139282H250M1738 110.51429749H250M1738 89.25710297H250M1738 68H250"/></g><text x="-88" y="-4" stroke="none" color-interpolation="linearRGB" color-rendering="optimizeQuality" font-size="14.66670036" font-weight="700" image-rendering="optimizeQuality" text-rendering="geometricPrecision" transform="translate(994.001 65.25)">Source to distortion ratio</text><path fill="none" stroke="#262626" stroke-linecap="butt" stroke-linejoin="round" stroke-width=".66670001" d="M250 748.22857666h1488" color-interpolation="linearRGB" color-rendering="optimizeQuality" image-rendering="optimizeQuality" text-rendering="geometricPrecision"/><path fill="#0072bd" stroke="none" d="M341.9228 748.2286v-48.4669h-45.9614v48.4669zm502.7027 0V383.5211h-45.9614v364.7075zm502.7027 0V479.2407h-45.9615v268.9879z" color-interpolation="sRGB" color-rendering="optimizeSpeed" image-rendering="optimizeSpeed" shape-rendering="crispEdges" text-rendering="optimizeSpeed"/><g fill="none" stroke-linecap="butt" stroke-width=".66670001" color-interpolation="linearRGB" color-rendering="optimizeQuality" image-rendering="optimizeQuality" text-rendering="geometricPrecision"><path d="M295.9614 748.2286v-48.4669h45.9614v48.4669zM798.6641 748.2286V383.5211h45.9614v364.7075zM1301.3667 748.2286V479.2407h45.9615v268.9879z"/></g><path fill="#d95319" stroke="none" d="M399.3745 748.2286V647.101h-45.9614v101.1276zm502.7027 0V345.6804h-45.9614v402.5482zm502.7028 0V479.8741h-45.9615v268.3545z" color-interpolation="sRGB" color-rendering="optimizeSpeed" image-rendering="optimizeSpeed" shape-rendering="crispEdges" text-rendering="optimizeSpeed"/><g fill="none" stroke-linecap="butt" stroke-width=".66670001" color-interpolation="linearRGB" color-rendering="optimizeQuality" image-rendering="optimizeQuality" text-rendering="geometricPrecision"><path d="M353.4131 748.2286V647.101h45.9614v101.1276zM856.1158 748.2286V345.6804h45.9614v402.5482zM1358.8185 748.2286V479.8741h45.9615v268.3545z"/></g><path fill="#edb120" stroke="none" d="M410.8648 748.2286v59.4702h45.9614v-59.4702zm548.6641 0V346.838h-45.9613v401.3906zm502.7028 0V515.2219h-45.9614v233.0067z" color-interpolation="sRGB" color-rendering="optimizeSpeed" image-rendering="optimizeSpeed" shape-rendering="crispEdges" text-rendering="optimizeSpeed"/><g fill="none" stroke-linecap="butt" stroke-width=".66670001" color-interpolation="linearRGB" color-rendering="optimizeQuality" image-rendering="optimizeQuality" text-rendering="geometricPrecision"><path d="M410.8648 748.2286v59.4702h45.9614v-59.4702zM913.5676 748.2286V346.838h45.9613v401.3906zM1416.2703 748.2286V515.2219h45.9614v233.0067z"/></g><path fill="#7e2f8e" stroke="none" d="M514.278 748.2286V521.654h-45.9614v226.5746zm502.7027 0V281.0648h-45.9614v467.1638zm502.7028 0V463.5312h-45.9616v284.6974z" color-interpolation="sRGB" color-rendering="optimizeSpeed" image-rendering="optimizeSpeed" shape-rendering="crispEdges" text-rendering="optimizeSpeed"/><g fill="none" stroke-linecap="butt" stroke-width=".66670001" color-interpolation="linearRGB" color-rendering="optimizeQuality" image-rendering="optimizeQuality" text-rendering="geometricPrecision"><path d="M468.3166 748.2286V521.654h45.9614v226.5746zM971.0193 748.2286V281.0648h45.9614v467.1638zM1473.7219 748.2286V463.5312h45.9616v284.6974z"/></g><path fill="#77ac30" stroke="none" d="M571.7297 748.2286V498.7573h-45.9613v249.4713zm502.7028 0V81.24h-45.9616v666.9886zm502.7026 0V285.9059h-45.9614v462.3227z" color-interpolation="sRGB" color-rendering="optimizeSpeed" image-rendering="optimizeSpeed" shape-rendering="crispEdges" text-rendering="optimizeSpeed"/><g fill="none" stroke-linecap="butt" stroke-width=".66670001" color-interpolation="linearRGB" color-rendering="optimizeQuality" image-rendering="optimizeQuality" text-rendering="geometricPrecision"><path d="M525.7684 748.2286V498.7573h45.9613v249.4713zM1028.4709 748.2286V81.24h45.9616v666.9886zM1531.1737 748.2286V285.9059h45.9614v462.3227z"/></g><path fill="#4dbeee" stroke="none" d="M629.1815 748.2286v-56.0272h-45.9614v56.0272zm502.7027 0V428.9454h-45.9615v319.2832zm502.7027 0V301.2782h-45.9614v446.9504z" color-interpolation="sRGB" color-rendering="optimizeSpeed" image-rendering="optimizeSpeed" shape-rendering="crispEdges" text-rendering="optimizeSpeed"/><g fill="none" stroke-linecap="butt" stroke-width=".66670001" color-interpolation="linearRGB" color-rendering="optimizeQuality" image-rendering="optimizeQuality" text-rendering="geometricPrecision"><path d="M583.2201 748.2286v-56.0272h45.9614v56.0272zM1085.9227 748.2286V428.9454h45.9615v319.2832zM1588.6255 748.2286V301.2782h45.9614v446.9504z"/></g><path fill="#a2142f" stroke="none" d="M686.6332 748.2286V622.6993h-45.9614v125.5293zm502.7027 0V240.9627h-45.9614v507.2659zm502.7028 0V289.2431h-45.9616v458.9855z" color-interpolation="sRGB" color-rendering="optimizeSpeed" image-rendering="optimizeSpeed" shape-rendering="crispEdges" text-rendering="optimizeSpeed"/><g fill="none" stroke-linecap="butt" stroke-width=".66670001" color-interpolation="linearRGB" color-rendering="optimizeQuality" image-rendering="optimizeQuality" text-rendering="geometricPrecision"><path d="M640.6718 748.2286V622.6993h45.9614v125.5293zM1143.3745 748.2286V240.9627h45.9614v507.2659zM1646.0771 748.2286V289.2431h45.9616v458.9855z"/></g><g fill="none" stroke="#262626" stroke-linejoin="round" stroke-width=".66670001" color-interpolation="linearRGB" color-rendering="optimizeQuality" image-rendering="optimizeQuality" text-rendering="geometricPrecision"><path d="M250 812h1488M250 68h1488M491.29730225 812v-14.88000488M994 812v-14.88000488M1496.70275879 812v-14.88000488M491.29730225 68v14.87999725M994 68v14.87999725M1496.70275879 68v14.87999725"/></g><text x="-17.5" y="14" fill="#262626" stroke="none" color-interpolation="linearRGB" color-rendering="optimizeQuality" font-size="13.33329964" image-rendering="optimizeQuality" text-rendering="geometricPrecision" transform="translate(491.2973 817.3333)">Direct</text><text x="-35.5" y="14" fill="#262626" stroke="none" color-interpolation="linearRGB" color-rendering="optimizeQuality" font-size="13.33329964" image-rendering="optimizeQuality" text-rendering="geometricPrecision" transform="translate(994 817.3333)">Ambient left</text><text x="-39.5" y="14" fill="#262626" stroke="none" color-interpolation="linearRGB" color-rendering="optimizeQuality" font-size="13.33329964" image-rendering="optimizeQuality" text-rendering="geometricPrecision" transform="translate(1496.7028 817.3333)">Ambient right</text><text x="-42" y="15" fill="#262626" stroke="none" color-interpolation="linearRGB" color-rendering="optimizeQuality" font-size="14.66670036" image-rendering="optimizeQuality" text-rendering="geometricPrecision" transform="translate(994.0007 835.6667)">Components</text><g fill="none" stroke="#262626" stroke-linejoin="round" stroke-width=".66670001" color-interpolation="linearRGB" color-rendering="optimizeQuality" image-rendering="optimizeQuality" text-rendering="geometricPrecision"><path d="M250 812V68M1738 812V68M250 812h14.88000488M250 790.74291992h14.88000488M250 769.48571777h14.88000488M250 748.22857666h14.88000488M250 726.97137451h14.88000488M250 705.71429443h14.88000488M250 684.45721436h14.88000488M250 663.20001221h14.88000488M250 641.94287109h14.88000488M250 620.68572998h14.88000488M250 599.42858887h14.88000488M250 578.17138672h14.88000488M250 556.91430664h14.88000488M250 535.65722656h14.88000488M250 514.40002441h14.88000488M250 493.14291382h14.88000488M250 471.88571167h14.88000488M250 450.62860107h14.88000488M250 429.37139893h14.88000488M250 408.11428833h14.88000488M250 386.85708618h14.88000488M250 365.6000061h14.88000488M250 344.34289551h14.88000488M250 323.08569336h14.88000488M250 301.82861328h14.88000488M250 280.57141113h14.88000488M250 259.31430054h14.88000488M250 238.05709839h14.88000488M250 216.80000305h14.88000488M250 195.54289246h14.88000488M250 174.28570557h14.88000488M250 153.02859497h14.88000488M250 131.77139282h14.88000488M250 110.51429749h14.88000488M250 89.25710297h14.88000488M250 68h14.88000488M1738 812h-14.87988281M1738 790.74291992h-14.87988281M1738 769.48571777h-14.87988281M1738 748.22857666h-14.87988281M1738 726.97137451h-14.87988281M1738 705.71429443h-14.87988281M1738 684.45721436h-14.87988281M1738 663.20001221h-14.87988281M1738 641.94287109h-14.87988281M1738 620.68572998h-14.87988281M1738 599.42858887h-14.87988281M1738 578.17138672h-14.87988281M1738 556.91430664h-14.87988281M1738 535.65722656h-14.87988281M1738 514.40002441h-14.87988281M1738 493.14291382h-14.87988281M1738 471.88571167h-14.87988281M1738 450.62860107h-14.87988281M1738 429.37139893h-14.87988281M1738 408.11428833h-14.87988281M1738 386.85708618h-14.87988281M1738 365.6000061h-14.87988281M1738 344.34289551h-14.87988281M1738 323.08569336h-14.87988281M1738 301.82861328h-14.87988281M1738 280.57141113h-14.87988281M1738 259.31430054h-14.87988281M1738 238.05709839h-14.87988281M1738 216.80000305h-14.87988281M1738 195.54289246h-14.87988281M1738 174.28570557h-14.87988281M1738 153.02859497h-14.87988281M1738 131.77139282h-14.87988281M1738 110.51429749h-14.87988281M1738 89.25710297h-14.87988281M1738 68h-14.87988281"/></g><text x="-23" y="5.5" fill="#262626" stroke="none" color-interpolation="linearRGB" color-rendering="optimizeQuality" font-size="13.33329964" image-rendering="optimizeQuality" text-rendering="geometricPrecision" transform="translate(244.6667 812)">-1.5</text><text x="-12" y="5.5" fill="#262626" stroke="none" color-interpolation="linearRGB" color-rendering="optimizeQuality" font-size="13.33329964" image-rendering="optimizeQuality" text-rendering="geometricPrecision" transform="translate(244.6667 790.7429)">-1</text><text x="-23" y="5.5" fill="#262626" stroke="none" color-interpolation="linearRGB" color-rendering="optimizeQuality" font-size="13.33329964" image-rendering="optimizeQuality" text-rendering="geometricPrecision" transform="translate(244.6667 769.4857)">-0.5</text><text x="-8" y="5.5" fill="#262626" stroke="none" color-interpolation="linearRGB" color-rendering="optimizeQuality" font-size="13.33329964" image-rendering="optimizeQuality" text-rendering="geometricPrecision" transform="translate(244.6667 748.2286)">0</text><text x="-19" y="5.5" fill="#262626" stroke="none" color-interpolation="linearRGB" color-rendering="optimizeQuality" font-size="13.33329964" image-rendering="optimizeQuality" text-rendering="geometricPrecision" transform="translate(244.6667 726.9714)">0.5</text><text x="-8" y="5.5" fill="#262626" stroke="none" color-interpolation="linearRGB" color-rendering="optimizeQuality" font-size="13.33329964" image-rendering="optimizeQuality" text-rendering="geometricPrecision" transform="translate(244.6667 705.7143)">1</text><text x="-19" y="5.5" fill="#262626" stroke="none" color-interpolation="linearRGB" color-rendering="optimizeQuality" font-size="13.33329964" image-rendering="optimizeQuality" text-rendering="geometricPrecision" transform="translate(244.6667 684.4572)">1.5</text><text x="-8" y="5.5" fill="#262626" stroke="none" color-interpolation="linearRGB" color-rendering="optimizeQuality" font-size="13.33329964" image-rendering="optimizeQuality" text-rendering="geometricPrecision" transform="translate(244.6667 663.2)">2</text><text x="-19" y="5.5" fill="#262626" stroke="none" color-interpolation="linearRGB" color-rendering="optimizeQuality" font-size="13.33329964" image-rendering="optimizeQuality" text-rendering="geometricPrecision" transform="translate(244.6667 641.9429)">2.5</text><text x="-8" y="5.5" fill="#262626" stroke="none" color-interpolation="linearRGB" color-rendering="optimizeQuality" font-size="13.33329964" image-rendering="optimizeQuality" text-rendering="geometricPrecision" transform="translate(244.6667 620.6857)">3</text><text x="-19" y="5.5" fill="#262626" stroke="none" color-interpolation="linearRGB" color-rendering="optimizeQuality" font-size="13.33329964" image-rendering="optimizeQuality" text-rendering="geometricPrecision" transform="translate(244.6667 599.4286)">3.5</text><text x="-8" y="5.5" fill="#262626" stroke="none" color-interpolation="linearRGB" color-rendering="optimizeQuality" font-size="13.33329964" image-rendering="optimizeQuality" text-rendering="geometricPrecision" transform="translate(244.6667 578.1714)">4</text><text x="-19" y="5.5" fill="#262626" stroke="none" color-interpolation="linearRGB" color-rendering="optimizeQuality" font-size="13.33329964" image-rendering="optimizeQuality" text-rendering="geometricPrecision" transform="translate(244.6667 556.9143)">4.5</text><text x="-8" y="5.5" fill="#262626" stroke="none" color-interpolation="linearRGB" color-rendering="optimizeQuality" font-size="13.33329964" image-rendering="optimizeQuality" text-rendering="geometricPrecision" transform="translate(244.6667 535.6572)">5</text><text x="-19" y="5.5" fill="#262626" stroke="none" color-interpolation="linearRGB" color-rendering="optimizeQuality" font-size="13.33329964" image-rendering="optimizeQuality" text-rendering="geometricPrecision" transform="translate(244.6667 514.4)">5.5</text><text x="-8" y="5.5" fill="#262626" stroke="none" color-interpolation="linearRGB" color-rendering="optimizeQuality" font-size="13.33329964" image-rendering="optimizeQuality" text-rendering="geometricPrecision" transform="translate(244.6667 493.1429)">6</text><text x="-19" y="5.5" fill="#262626" stroke="none" color-interpolation="linearRGB" color-rendering="optimizeQuality" font-size="13.33329964" image-rendering="optimizeQuality" text-rendering="geometricPrecision" transform="translate(244.6667 471.8857)">6.5</text><text x="-8" y="5.5" fill="#262626" stroke="none" color-interpolation="linearRGB" color-rendering="optimizeQuality" font-size="13.33329964" image-rendering="optimizeQuality" text-rendering="geometricPrecision" transform="translate(244.6667 450.6286)">7</text><text x="-19" y="5.5" fill="#262626" stroke="none" color-interpolation="linearRGB" color-rendering="optimizeQuality" font-size="13.33329964" image-rendering="optimizeQuality" text-rendering="geometricPrecision" transform="translate(244.6667 429.3714)">7.5</text><text x="-8" y="5.5" fill="#262626" stroke="none" color-interpolation="linearRGB" color-rendering="optimizeQuality" font-size="13.33329964" image-rendering="optimizeQuality" text-rendering="geometricPrecision" transform="translate(244.6667 408.1143)">8</text><text x="-19" y="5.5" fill="#262626" stroke="none" color-interpolation="linearRGB" color-rendering="optimizeQuality" font-size="13.33329964" image-rendering="optimizeQuality" text-rendering="geometricPrecision" transform="translate(244.6667 386.8571)">8.5</text><text x="-8" y="5.5" fill="#262626" stroke="none" color-interpolation="linearRGB" color-rendering="optimizeQuality" font-size="13.33329964" image-rendering="optimizeQuality" text-rendering="geometricPrecision" transform="translate(244.6667 365.6)">9</text><text x="-19" y="5.5" fill="#262626" stroke="none" color-interpolation="linearRGB" color-rendering="optimizeQuality" font-size="13.33329964" image-rendering="optimizeQuality" text-rendering="geometricPrecision" transform="translate(244.6667 344.3429)">9.5</text><text x="-15" y="5.5" fill="#262626" stroke="none" color-interpolation="linearRGB" color-rendering="optimizeQuality" font-size="13.33329964" image-rendering="optimizeQuality" text-rendering="geometricPrecision" transform="translate(244.6667 323.0857)">10</text><text x="-26" y="5.5" fill="#262626" stroke="none" color-interpolation="linearRGB" color-rendering="optimizeQuality" font-size="13.33329964" image-rendering="optimizeQuality" text-rendering="geometricPrecision" transform="translate(244.6667 301.8286)">10.5</text><text x="-15" y="5.5" fill="#262626" stroke="none" color-interpolation="linearRGB" color-rendering="optimizeQuality" font-size="13.33329964" image-rendering="optimizeQuality" text-rendering="geometricPrecision" transform="translate(244.6667 280.5714)">11</text><text x="-26" y="5.5" fill="#262626" stroke="none" color-interpolation="linearRGB" color-rendering="optimizeQuality" font-size="13.33329964" image-rendering="optimizeQuality" text-rendering="geometricPrecision" transform="translate(244.6667 259.3143)">11.5</text><text x="-15" y="5.5" fill="#262626" stroke="none" color-interpolation="linearRGB" color-rendering="optimizeQuality" font-size="13.33329964" image-rendering="optimizeQuality" text-rendering="geometricPrecision" transform="translate(244.6667 238.0571)">12</text><text x="-26" y="5.5" fill="#262626" stroke="none" color-interpolation="linearRGB" color-rendering="optimizeQuality" font-size="13.33329964" image-rendering="optimizeQuality" text-rendering="geometricPrecision" transform="translate(244.6667 216.8)">12.5</text><text x="-15" y="5.5" fill="#262626" stroke="none" color-interpolation="linearRGB" color-rendering="optimizeQuality" font-size="13.33329964" image-rendering="optimizeQuality" text-rendering="geometricPrecision" transform="translate(244.6667 195.5429)">13</text><text x="-26" y="5.5" fill="#262626" stroke="none" color-interpolation="linearRGB" color-rendering="optimizeQuality" font-size="13.33329964" image-rendering="optimizeQuality" text-rendering="geometricPrecision" transform="translate(244.6667 174.2857)">13.5</text><text x="-15" y="5.5" fill="#262626" stroke="none" color-interpolation="linearRGB" color-rendering="optimizeQuality" font-size="13.33329964" image-rendering="optimizeQuality" text-rendering="geometricPrecision" transform="translate(244.6667 153.0286)">14</text><text x="-26" y="5.5" fill="#262626" stroke="none" color-interpolation="linearRGB" color-rendering="optimizeQuality" font-size="13.33329964" image-rendering="optimizeQuality" text-rendering="geometricPrecision" transform="translate(244.6667 131.7714)">14.5</text><text x="-15" y="5.5" fill="#262626" stroke="none" color-interpolation="linearRGB" color-rendering="optimizeQuality" font-size="13.33329964" image-rendering="optimizeQuality" text-rendering="geometricPrecision" transform="translate(244.6667 110.5143)">15</text><text x="-26" y="5.5" fill="#262626" stroke="none" color-interpolation="linearRGB" color-rendering="optimizeQuality" font-size="13.33329964" image-rendering="optimizeQuality" text-rendering="geometricPrecision" transform="translate(244.6667 89.2571)">15.5</text><text x="-15" y="5.5" fill="#262626" stroke="none" color-interpolation="linearRGB" color-rendering="optimizeQuality" font-size="13.33329964" image-rendering="optimizeQuality" text-rendering="geometricPrecision" transform="translate(244.6667 68)">16</text><text x="-9" y="-4" fill="#262626" stroke="none" color-interpolation="linearRGB" color-rendering="optimizeQuality" font-size="14.66670036" image-rendering="optimizeQuality" text-rendering="geometricPrecision" transform="rotate(-90 327.33315 112.66645)">dB</text><path fill="#fff" stroke="none" d="M1727 198V79h-239v119z" color-interpolation="sRGB" color-rendering="optimizeSpeed" image-rendering="optimizeSpeed" shape-rendering="crispEdges" text-rendering="optimizeSpeed"/><text y="5" stroke="none" color-interpolation="linearRGB" color-rendering="optimizeQuality" image-rendering="optimizeQuality" text-rendering="geometricPrecision" transform="translate(1535 89)">Avendano</text><path fill="#0072bd" stroke="none" d="M1532 95V83h-40v12z" color-interpolation="sRGB" color-rendering="optimizeSpeed" image-rendering="optimizeSpeed" shape-rendering="crispEdges" text-rendering="optimizeSpeed"/><path fill="none" stroke-linecap="butt" stroke-width=".66670001" d="M1492 95V83h40v12z" color-interpolation="linearRGB" color-rendering="optimizeQuality" image-rendering="optimizeQuality" text-rendering="geometricPrecision"/><text y="5" stroke="none" color-interpolation="linearRGB" color-rendering="optimizeQuality" image-rendering="optimizeQuality" text-rendering="geometricPrecision" transform="translate(1535 105.5)">Kraft</text><path fill="#d95319" stroke="none" d="M1532 111.5v-12h-40v12z" color-interpolation="sRGB" color-rendering="optimizeSpeed" image-rendering="optimizeSpeed" shape-rendering="crispEdges" text-rendering="optimizeSpeed"/><path fill="none" stroke-linecap="butt" stroke-width=".66670001" d="M1492 111.5v-12h40v12z" color-interpolation="linearRGB" color-rendering="optimizeQuality" image-rendering="optimizeQuality" text-rendering="geometricPrecision"/><text y="5" stroke="none" color-interpolation="linearRGB" color-rendering="optimizeQuality" image-rendering="optimizeQuality" text-rendering="geometricPrecision" transform="translate(1535 122)">NUGXX(Commercial)</text><path fill="#edb120" stroke="none" d="M1532 128v-12h-40v12z" color-interpolation="sRGB" color-rendering="optimizeSpeed" image-rendering="optimizeSpeed" shape-rendering="crispEdges" text-rendering="optimizeSpeed"/><path fill="none" stroke-linecap="butt" stroke-width=".66670001" d="M1492 128v-12h40v12z" color-interpolation="linearRGB" color-rendering="optimizeQuality" image-rendering="optimizeQuality" text-rendering="geometricPrecision"/><text y="5" stroke="none" color-interpolation="linearRGB" color-rendering="optimizeQuality" image-rendering="optimizeQuality" text-rendering="geometricPrecision" transform="translate(1535 138.5)">FreeSurround</text><path fill="#7e2f8e" stroke="none" d="M1532 144.5v-12h-40v12z" color-interpolation="sRGB" color-rendering="optimizeSpeed" image-rendering="optimizeSpeed" shape-rendering="crispEdges" text-rendering="optimizeSpeed"/><path fill="none" stroke-linecap="butt" stroke-width=".66670001" d="M1492 144.5v-12h40v12z" color-interpolation="linearRGB" color-rendering="optimizeQuality" image-rendering="optimizeQuality" text-rendering="geometricPrecision"/><text y="5" stroke="none" color-interpolation="linearRGB" color-rendering="optimizeQuality" image-rendering="optimizeQuality" text-rendering="geometricPrecision" transform="translate(1535 155)">James Fung &amp; Joseph Yeung 2017</text><path fill="#77ac30" stroke="none" d="M1532 161v-12h-40v12z" color-interpolation="sRGB" color-rendering="optimizeSpeed" image-rendering="optimizeSpeed" shape-rendering="crispEdges" text-rendering="optimizeSpeed"/><path fill="none" stroke-linecap="butt" stroke-width=".66670001" d="M1492 161v-12h40v12z" color-interpolation="linearRGB" color-rendering="optimizeQuality" image-rendering="optimizeQuality" text-rendering="geometricPrecision"/><text y="5" stroke="none" color-interpolation="linearRGB" color-rendering="optimizeQuality" image-rendering="optimizeQuality" text-rendering="geometricPrecision" transform="translate(1535 171.5)">James Fung NN1 2019</text><path fill="#4dbeee" stroke="none" d="M1532 177.5v-12h-40v12z" color-interpolation="sRGB" color-rendering="optimizeSpeed" image-rendering="optimizeSpeed" shape-rendering="crispEdges" text-rendering="optimizeSpeed"/><path fill="none" stroke-linecap="butt" stroke-width=".66670001" d="M1492 177.5v-12h40v12z" color-interpolation="linearRGB" color-rendering="optimizeQuality" image-rendering="optimizeQuality" text-rendering="geometricPrecision"/><text y="5" stroke="none" color-interpolation="linearRGB" color-rendering="optimizeQuality" image-rendering="optimizeQuality" text-rendering="geometricPrecision" transform="translate(1535 188)">James Fung NN2 2019</text><path fill="#a2142f" stroke="none" d="M1532 194v-12h-40v12z" color-interpolation="sRGB" color-rendering="optimizeSpeed" image-rendering="optimizeSpeed" shape-rendering="crispEdges" text-rendering="optimizeSpeed"/><g fill="none" stroke-linecap="butt" stroke-width=".66670001" color-interpolation="linearRGB" color-rendering="optimizeQuality" image-rendering="optimizeQuality" text-rendering="geometricPrecision"><path d="M1492 194v-12h40v12z"/><path stroke="#262626" d="M1488 198V79h239v119z"/></g></g></svg>