<svg xmlns="http://www.w3.org/2000/svg" width="590" height="435" cursor="move"><path stroke="#505050" stroke-width=".5" marker-end="url(#arrow)" d="M35.8 171.7l119-102" class="link"/><path stroke="#505050" stroke-width=".5" marker-end="url(#arrow)" d="M35.8 171.7l119-51" class="link"/><path stroke="#505050" stroke-width=".5" marker-end="url(#arrow)" d="M35.8 171.7h119" class="link"/><path stroke="#505050" stroke-width=".5" marker-end="url(#arrow)" d="M35.8 171.7l119 51" class="link"/><path stroke="#505050" stroke-width=".5" marker-end="url(#arrow)" d="M35.8 171.7l119 102" class="link"/><path stroke="#505050" stroke-width=".5" marker-end="url(#arrow)" d="M35.8 171.7l119 153" class="link"/><path stroke="#505050" stroke-width=".5" marker-end="url(#arrow)" d="M35.8 171.7l119 204" class="link"/><path stroke="#505050" stroke-width=".5" marker-end="url(#arrow)" d="M35.8 222.7l119-153" class="link"/><path stroke="#505050" stroke-width=".5" marker-end="url(#arrow)" d="M35.8 222.7l119-102" class="link"/><path stroke="#505050" stroke-width=".5" marker-end="url(#arrow)" d="M35.8 222.7l119-51" class="link"/><path stroke="#505050" stroke-width=".5" marker-end="url(#arrow)" d="M35.8 222.7h119" class="link"/><path stroke="#505050" stroke-width=".5" marker-end="url(#arrow)" d="M35.8 222.7l119 51" class="link"/><path stroke="#505050" stroke-width=".5" marker-end="url(#arrow)" d="M35.8 222.7l119 102" class="link"/><path stroke="#505050" stroke-width=".5" marker-end="url(#arrow)" d="M35.8 222.7l119 153" class="link"/><path stroke="#505050" stroke-width=".5" marker-end="url(#arrow)" d="M154.8 18.7l119 127.5" class="link"/><path stroke="#505050" stroke-width=".5" marker-end="url(#arrow)" d="M154.8 18.7l119 178.5" class="link"/><path stroke="#505050" stroke-width=".5" marker-end="url(#arrow)" d="M154.8 18.7l119 229.5" class="link"/><path stroke="#505050" stroke-width=".5" marker-end="url(#arrow)" d="M154.8 18.7l119 280.5" class="link"/><path stroke="#505050" stroke-width=".5" marker-end="url(#arrow)" d="M154.8 69.7l119 76.5" class="link"/><path stroke="#505050" stroke-width=".5" marker-end="url(#arrow)" d="M154.8 69.7l119 127.5" class="link"/><path stroke="#505050" stroke-width=".5" marker-end="url(#arrow)" d="M154.8 69.7l119 178.5" class="link"/><path stroke="#505050" stroke-width=".5" marker-end="url(#arrow)" d="M154.8 69.7l119 229.5" class="link"/><path stroke="#505050" stroke-width=".5" marker-end="url(#arrow)" d="M154.8 120.7l119 25.5" class="link"/><path stroke="#505050" stroke-width=".5" marker-end="url(#arrow)" d="M154.8 120.7l119 76.5" class="link"/><path stroke="#505050" stroke-width=".5" marker-end="url(#arrow)" d="M154.8 120.7l119 127.5" class="link"/><path stroke="#505050" stroke-width=".5" marker-end="url(#arrow)" d="M154.8 120.7l119 178.5" class="link"/><path stroke="#505050" stroke-width=".5" marker-end="url(#arrow)" d="M154.8 171.7l119-25.5" class="link"/><path stroke="#505050" stroke-width=".5" marker-end="url(#arrow)" d="M154.8 171.7l119 25.5" class="link"/><path stroke="#505050" stroke-width=".5" marker-end="url(#arrow)" d="M154.8 171.7l119 76.5" class="link"/><path stroke="#505050" stroke-width=".5" marker-end="url(#arrow)" d="M154.8 171.7l119 127.5" class="link"/><path stroke="#505050" stroke-width=".5" marker-end="url(#arrow)" d="M154.8 222.7l119-76.5" class="link"/><path stroke="#505050" stroke-width=".5" marker-end="url(#arrow)" d="M154.8 222.7l119-25.5" class="link"/><path stroke="#505050" stroke-width=".5" marker-end="url(#arrow)" d="M154.8 222.7l119 25.5" class="link"/><path stroke="#505050" stroke-width=".5" marker-end="url(#arrow)" d="M154.8 222.7l119 76.5" class="link"/><path stroke="#505050" stroke-width=".5" marker-end="url(#arrow)" d="M154.8 273.7l119-127.5" class="link"/><path stroke="#505050" stroke-width=".5" marker-end="url(#arrow)" d="M154.8 273.7l119-76.5" class="link"/><path stroke="#505050" stroke-width=".5" marker-end="url(#arrow)" d="M154.8 273.7l119-25.5" class="link"/><path stroke="#505050" stroke-width=".5" marker-end="url(#arrow)" d="M154.8 273.7l119 25.5" class="link"/><path stroke="#505050" stroke-width=".5" marker-end="url(#arrow)" d="M154.8 324.7l119-178.5" class="link"/><path stroke="#505050" stroke-width=".5" marker-end="url(#arrow)" d="M154.8 324.7l119-127.5" class="link"/><path stroke="#505050" stroke-width=".5" marker-end="url(#arrow)" d="M154.8 324.7l119-76.5" class="link"/><path stroke="#505050" stroke-width=".5" marker-end="url(#arrow)" d="M154.8 324.7l119-25.5" class="link"/><path stroke="#505050" stroke-width=".5" marker-end="url(#arrow)" d="M154.8 375.7l119-229.5" class="link"/><path stroke="#505050" stroke-width=".5" marker-end="url(#arrow)" d="M154.8 375.7l119-178.5" class="link"/><path stroke="#505050" stroke-width=".5" marker-end="url(#arrow)" d="M154.8 375.7l119-127.5" class="link"/><path stroke="#505050" stroke-width=".5" marker-end="url(#arrow)" d="M154.8 375.7l119-76.5" class="link"/><path stroke="#505050" stroke-width=".5" marker-end="url(#arrow)" d="M273.8 95.2l119 102" class="link"/><path stroke="#505050" stroke-width=".5" marker-end="url(#arrow)" d="M273.8 95.2l119 153" class="link"/><path stroke="#505050" stroke-width=".5" marker-end="url(#arrow)" d="M273.8 146.2l119 51" class="link"/><path stroke="#505050" stroke-width=".5" marker-end="url(#arrow)" d="M273.8 146.2l119 102" class="link"/><path stroke="#505050" stroke-width=".5" marker-end="url(#arrow)" d="M273.8 197.2h119" class="link"/><path stroke="#505050" stroke-width=".5" marker-end="url(#arrow)" d="M273.8 197.2l119 51" class="link"/><path stroke="#505050" stroke-width=".5" marker-end="url(#arrow)" d="M273.8 248.2l119-51" class="link"/><path stroke="#505050" stroke-width=".5" marker-end="url(#arrow)" d="M273.8 248.2h119" class="link"/><path stroke="#505050" stroke-width=".5" marker-end="url(#arrow)" d="M273.8 299.2l119-102" class="link"/><path stroke="#505050" stroke-width=".5" marker-end="url(#arrow)" d="M273.8 299.2l119-51" class="link"/><path stroke="#505050" stroke-width=".5" marker-end="url(#arrow)" d="M392.8 146.2l119 51" class="link"/><path stroke="#505050" stroke-width=".5" marker-end="url(#arrow)" d="M392.8 197.2h119" class="link"/><path stroke="#505050" stroke-width=".5" marker-end="url(#arrow)" d="M392.8 248.2l119-51" class="link"/><path stroke="#505050" stroke-width=".5" marker-end="url(#arrow)" d="M35.8 171.7l119-153" class="link"/><path stroke="#505050" stroke-width=".5" marker-end="url(#arrow)" d="M35.8 222.7l119-204" class="link"/><path stroke="#505050" stroke-width=".5" marker-end="url(#arrow)" d="M154.8 18.7l119 76.5" class="link"/><path stroke="#505050" stroke-width=".5" marker-end="url(#arrow)" d="M154.8 69.7l119 25.5" class="link"/><path stroke="#505050" stroke-width=".5" marker-end="url(#arrow)" d="M154.8 120.7l119-25.5" class="link"/><path stroke="#505050" stroke-width=".5" marker-end="url(#arrow)" d="M154.8 171.7l119-76.5" class="link"/><path stroke="#505050" stroke-width=".5" marker-end="url(#arrow)" d="M154.8 222.7l119-127.5" class="link"/><path stroke="#505050" stroke-width=".5" marker-end="url(#arrow)" d="M154.8 273.7l119-178.5" class="link"/><path stroke="#505050" stroke-width=".5" marker-end="url(#arrow)" d="M154.8 324.7l119-229.5" class="link"/><path stroke="#505050" stroke-width=".5" marker-end="url(#arrow)" d="M154.8 375.7l119-280.5" class="link"/><path stroke="#505050" stroke-width=".5" marker-end="url(#arrow)" d="M273.8 95.2l119 51" class="link"/><path stroke="#505050" stroke-width=".5" marker-end="url(#arrow)" d="M273.8 146.2h119" class="link"/><path stroke="#505050" stroke-width=".5" marker-end="url(#arrow)" d="M273.8 197.2l119-51" class="link"/><path stroke="#505050" stroke-width=".5" marker-end="url(#arrow)" d="M273.8 248.2l119-102" class="link"/><path stroke="#505050" stroke-width=".5" marker-end="url(#arrow)" d="M273.8 299.2l119-153" class="link"/><circle cx="35.8" cy="171.7" r="15.5" fill="#fff" stroke="#333" class="node"/><circle cx="35.8" cy="222.7" r="15.5" fill="#fff" stroke="#333" class="node"/><circle cx="154.8" cy="18.7" r="15.5" fill="#fff" stroke="#333" class="node"/><circle cx="154.8" cy="69.7" r="15.5" fill="#fff" stroke="#333" class="node"/><circle cx="154.8" cy="120.7" r="15.5" fill="#fff" stroke="#333" class="node"/><circle cx="154.8" cy="171.7" r="15.5" fill="#fff" stroke="#333" class="node"/><circle cx="154.8" cy="222.7" r="15.5" fill="#fff" stroke="#333" class="node"/><circle cx="154.8" cy="273.7" r="15.5" fill="#fff" stroke="#333" class="node"/><circle cx="154.8" cy="324.7" r="15.5" fill="#fff" stroke="#333" class="node"/><circle cx="154.8" cy="375.7" r="15.5" fill="#fff" stroke="#333" class="node"/><circle cx="273.8" cy="95.2" r="15.5" fill="#fff" stroke="#333" class="node"/><circle cx="273.8" cy="146.2" r="15.5" fill="#fff" stroke="#333" class="node"/><circle cx="273.8" cy="197.2" r="15.5" fill="#fff" stroke="#333" class="node"/><circle cx="273.8" cy="248.2" r="15.5" fill="#fff" stroke="#333" class="node"/><circle cx="273.8" cy="299.2" r="15.5" fill="#fff" stroke="#333" class="node"/><circle cx="392.8" cy="146.2" r="15.5" fill="#fff" stroke="#333" class="node"/><text x=".8" y="426.7" class="text" dy="3.6" font-size="12">Input Layer ∈ ℝ²</text><text x="119.8" y="426.7" class="text" dy="3.6" font-size="12">Hidden Layer ∈ ℝ⁸</text><text x="238.8" y="426.7" class="text" dy="3.6" font-size="12">Hidden Layer ∈ ℝ⁵</text><text x="357.8" y="426.7" class="text" dy="3.6" font-size="12">Hidden Layer ∈ ℝ³</text><circle cx="392.8" cy="197.2" r="15.5" fill="#fff" stroke="#333" class="node"/><circle cx="392.8" cy="248.2" r="15.5" fill="#fff" stroke="#333" class="node"/><circle cx="511.8" cy="197.2" r="15.5" fill="#fff" stroke="#333" class="node"/><text x="476.8" y="426.7" class="text" dy="3.6" font-size="12">Output Layer ∈ ℝ¹</text><defs id="defs1610"><marker id="arrow" markerHeight="7" markerWidth="7" orient="auto" refX="55.4" viewBox="0 -5 10 10"><path id="path1607" fill="#505050" stroke="#505050" d="M0-5l10 5L0 5"/></marker></defs></svg>